# MagicaVoxel @ Ephtracy

# group
o 

# material
mtllib cornerSnake1.mtl
usemtl palette

# normals
vn -1 0 0
vn 1 0 0
vn 0 0 1
vn 0 0 -1
vn 0 -1 0
vn 0 1 0

# texcoords
vt 0.404297 0.5
vt 0.896484 0.5
vt 0.904297 0.5

# verts
v -1 0.6 0.6
v -1 0.6 -0.8
v -1 1 0.6
v -1 1 -0.4
v -1 1.1 -0.3
v -1 1.1 -0.4
v -1 1.2 -0.2
v -1 1.2 -0.3
v -1 1.2 -0.4
v -1 1.3 -0.2
v -1 1.3 -0.3
v -1 2 0.6
v -1 2 -0.4
v -1 2 -0.8
v -0.7 0.3 0.6
v -0.7 0.3 -0.8
v -0.7 0.6 0.9
v -0.7 0.6 0.6
v -0.7 0.6 -0.8
v -0.7 0.6 -1.1
v -0.7 1 0.9
v -0.7 1 0.6
v -0.7 2 0.9
v -0.7 2 0.6
v -0.7 2 -0.4
v -0.7 2 -0.8
v -0.7 2 -1.1
v -0.7 2.3 0.6
v -0.7 2.3 -0.4
v -0.7 2.3 -0.8
v -0.5 0.8 1.1
v -0.5 0.8 0.9
v -0.5 1 1.1
v -0.5 1 0.9
v -0.5 1.8 1.1
v -0.5 1.8 0.9
v -0.5 2.3 0.4
v -0.5 2.3 -0.4
v -0.5 2.3 -0.6
v -0.5 2.5 0.4
v -0.5 2.5 -0.4
v -0.5 2.5 -0.6
v 0.5 0.8 1.1
v 0.5 0.8 0.9
v 0.5 1 1.1
v 0.5 1 0.9
v 0.5 1.8 1.1
v 0.5 1.8 0.9
v 0.5 2.3 0.4
v 0.5 2.3 -0.4
v 0.5 2.3 -0.6
v 0.5 2.5 0.4
v 0.5 2.5 -0.4
v 0.5 2.5 -0.6
v 0.7 0.3 0.6
v 0.7 0.3 -0.8
v 0.7 0.6 0.9
v 0.7 0.6 0.6
v 0.7 0.6 -0.8
v 0.7 0.6 -1.1
v 0.7 1 0.9
v 0.7 1 0.6
v 0.7 2 0.9
v 0.7 2 0.6
v 0.7 2 -0.4
v 0.7 2 -0.8
v 0.7 2 -1.1
v 0.7 2.3 0.6
v 0.7 2.3 -0.4
v 0.7 2.3 -0.8
v 1 0.6 0.6
v 1 0.6 -0.8
v 1 1 0.6
v 1 1 -0.4
v 1 2 0.6
v 1 2 -0.4
v 1 2 -0.8
v -0.5 0.8 1.1
v -0.5 1 1.1
v -0.5 1.8 1.1
v -0.3 1.1 1.1
v -0.3 1.2 1.1
v -0.2 1 1.1
v -0.2 1.1 1.1
v -0.2 1.4 1.1
v -0.2 1.6 1.1
v -0.1 1.1 1.1
v -0.1 1.2 1.1
v -0.1 1.3 1.1
v -0.1 1.4 1.1
v -0.1 1.5 1.1
v 0 0.9 1.1
v 0 1 1.1
v 0 1.1 1.1
v 0 1.2 1.1
v 0 1.3 1.1
v 0 1.4 1.1
v 0.1 1.1 1.1
v 0.1 1.2 1.1
v 0.1 1.3 1.1
v 0.1 1.4 1.1
v 0.1 1.5 1.1
v 0.2 0.9 1.1
v 0.2 1 1.1
v 0.2 1.1 1.1
v 0.2 1.2 1.1
v 0.2 1.3 1.1
v 0.2 1.4 1.1
v 0.2 1.5 1.1
v 0.3 1 1.1
v 0.3 1.1 1.1
v 0.3 1.3 1.1
v 0.3 1.4 1.1
v 0.3 1.5 1.1
v 0.3 1.6 1.1
v 0.5 0.8 1.1
v 0.5 1 1.1
v 0.5 1.8 1.1
v -0.7 0.6 0.9
v -0.7 1 0.9
v -0.7 2 0.9
v -0.5 0.8 0.9
v -0.5 1 0.9
v -0.5 1.8 0.9
v 0.5 0.8 0.9
v 0.5 1 0.9
v 0.5 1.8 0.9
v 0.7 0.6 0.9
v 0.7 1 0.9
v 0.7 2 0.9
v -1 0.6 0.6
v -1 1 0.6
v -1 2 0.6
v -0.7 0.3 0.6
v -0.7 0.6 0.6
v -0.7 1 0.6
v -0.7 2 0.6
v -0.7 2.3 0.6
v 0.7 0.3 0.6
v 0.7 0.6 0.6
v 0.7 1 0.6
v 0.7 2 0.6
v 0.7 2.3 0.6
v 1 0.6 0.6
v 1 1 0.6
v 1 2 0.6
v -0.5 2.3 0.4
v -0.5 2.5 0.4
v 0.5 2.3 0.4
v 0.5 2.5 0.4
v -0.5 2.3 -0.6
v -0.5 2.5 -0.6
v 0.5 2.3 -0.6
v 0.5 2.5 -0.6
v -1 0.6 -0.8
v -1 2 -0.8
v -0.7 0.3 -0.8
v -0.7 0.6 -0.8
v -0.7 2 -0.8
v -0.7 2.3 -0.8
v 0.7 0.3 -0.8
v 0.7 0.6 -0.8
v 0.7 2 -0.8
v 0.7 2.3 -0.8
v 1 0.6 -0.8
v 1 2 -0.8
v -0.7 0.6 -1.1
v -0.7 2 -1.1
v 0.7 0.6 -1.1
v 0.7 2 -1.1
v -0.7 0.3 0.6
v 0.7 0.3 0.6
v -0.7 0.3 -0.8
v 0.7 0.3 -0.8
v -0.7 0.6 0.9
v 0.7 0.6 0.9
v -1 0.6 0.6
v -0.7 0.6 0.6
v 0.7 0.6 0.6
v 1 0.6 0.6
v -1 0.6 -0.8
v -0.7 0.6 -0.8
v 0.7 0.6 -0.8
v 1 0.6 -0.8
v -0.7 0.6 -1.1
v 0.7 0.6 -1.1
v -0.5 0.8 1.1
v 0.5 0.8 1.1
v -0.5 0.8 0.9
v 0.5 0.8 0.9
v -0.5 1.8 1.1
v 0.5 1.8 1.1
v -0.5 1.8 0.9
v 0.5 1.8 0.9
v -0.7 2 0.9
v 0.7 2 0.9
v -1 2 0.6
v -0.7 2 0.6
v 0.7 2 0.6
v 1 2 0.6
v -1 2 -0.4
v -0.7 2 -0.4
v 0.7 2 -0.4
v 1 2 -0.4
v -1 2 -0.8
v -0.7 2 -0.8
v 0.7 2 -0.8
v 1 2 -0.8
v -0.7 2 -1.1
v 0.7 2 -1.1
v -0.7 2.3 0.6
v 0.7 2.3 0.6
v -0.5 2.3 0.4
v 0.5 2.3 0.4
v -0.7 2.3 -0.4
v -0.5 2.3 -0.4
v 0.5 2.3 -0.4
v 0.7 2.3 -0.4
v -0.5 2.3 -0.6
v 0.5 2.3 -0.6
v -0.7 2.3 -0.8
v 0.7 2.3 -0.8
v -0.5 2.5 0.4
v 0.5 2.5 0.4
v -0.5 2.5 -0.4
v 0.5 2.5 -0.4
v -0.5 2.5 -0.6
v 0.5 2.5 -0.6

# faces
f 3/2/1 2/2/1 1/2/1
f 4/2/1 2/2/1 3/2/1
f 5/3/1 4/3/1 3/3/1
f 6/2/1 2/2/1 4/2/1
f 6/3/1 4/3/1 5/3/1
f 7/3/1 5/3/1 3/3/1
f 8/2/1 6/2/1 5/2/1
f 8/3/1 5/3/1 7/3/1
f 9/2/1 2/2/1 6/2/1
f 9/2/1 6/2/1 8/2/1
f 10/2/1 8/2/1 7/2/1
f 10/3/1 7/3/1 3/3/1
f 11/3/1 9/3/1 8/3/1
f 11/2/1 8/2/1 10/2/1
f 12/3/1 10/3/1 3/3/1
f 12/3/1 11/3/1 10/3/1
f 13/2/1 2/2/1 9/2/1
f 13/3/1 11/3/1 12/3/1
f 13/3/1 9/3/1 11/3/1
f 14/2/1 2/2/1 13/2/1
f 18/2/1 16/2/1 15/2/1
f 19/2/1 16/2/1 18/2/1
f 21/2/1 18/2/1 17/2/1
f 22/2/1 18/2/1 21/2/1
f 23/3/1 22/3/1 21/3/1
f 24/3/1 22/3/1 23/3/1
f 26/2/1 20/2/1 19/2/1
f 27/2/1 20/2/1 26/2/1
f 28/3/1 25/3/1 24/3/1
f 29/2/1 26/2/1 25/2/1
f 29/3/1 25/3/1 28/3/1
f 30/2/1 26/2/1 29/2/1
f 33/2/1 32/2/1 31/2/1
f 34/2/1 32/2/1 33/2/1
f 35/3/1 34/3/1 33/3/1
f 36/3/1 34/3/1 35/3/1
f 40/3/1 38/3/1 37/3/1
f 41/2/1 39/2/1 38/2/1
f 41/3/1 38/3/1 40/3/1
f 42/2/1 39/2/1 41/2/1
f 43/2/2 44/2/2 45/2/2
f 45/2/2 44/2/2 46/2/2
f 45/3/2 46/3/2 47/3/2
f 47/3/2 46/3/2 48/3/2
f 49/3/2 50/3/2 52/3/2
f 50/2/2 51/2/2 53/2/2
f 52/3/2 50/3/2 53/3/2
f 53/2/2 51/2/2 54/2/2
f 55/2/2 56/2/2 58/2/2
f 58/2/2 56/2/2 59/2/2
f 57/2/2 58/2/2 61/2/2
f 61/2/2 58/2/2 62/2/2
f 61/3/2 62/3/2 63/3/2
f 63/3/2 62/3/2 64/3/2
f 59/2/2 60/2/2 66/2/2
f 66/2/2 60/2/2 67/2/2
f 64/3/2 65/3/2 68/3/2
f 65/2/2 66/2/2 69/2/2
f 68/3/2 65/3/2 69/3/2
f 69/2/2 66/2/2 70/2/2
f 71/2/2 72/2/2 73/2/2
f 73/2/2 72/2/2 74/2/2
f 73/3/2 74/3/2 75/3/2
f 74/2/2 72/2/2 76/2/2
f 75/3/2 74/3/2 76/3/2
f 76/2/2 72/2/2 77/2/2
f 81/3/3 80/3/3 79/3/3
f 82/3/3 80/3/3 81/3/3
f 83/2/3 79/2/3 78/2/3
f 83/3/3 81/3/3 79/3/3
f 84/1/3 82/1/3 81/1/3
f 84/3/3 81/3/3 83/3/3
f 85/3/3 80/3/3 82/3/3
f 86/3/3 80/3/3 85/3/3
f 87/1/3 82/1/3 84/1/3
f 87/1/3 84/1/3 83/1/3
f 88/3/3 85/3/3 82/3/3
f 88/1/3 82/1/3 87/1/3
f 89/3/3 85/3/3 88/3/3
f 90/1/3 86/1/3 85/1/3
f 90/3/3 85/3/3 89/3/3
f 91/1/3 86/1/3 90/1/3
f 92/2/3 83/2/3 78/2/3
f 93/1/3 87/1/3 83/1/3
f 93/2/3 83/2/3 92/2/3
f 94/3/3 89/3/3 88/3/3
f 94/1/3 87/1/3 93/1/3
f 94/3/3 88/3/3 87/3/3
f 95/3/3 89/3/3 94/3/3
f 96/1/3 90/1/3 89/1/3
f 96/3/3 89/3/3 95/3/3
f 97/3/3 91/3/3 90/3/3
f 97/1/3 90/1/3 96/1/3
f 98/3/3 95/3/3 94/3/3
f 98/3/3 94/3/3 93/3/3
f 99/1/3 96/1/3 95/1/3
f 99/3/3 95/3/3 98/3/3
f 100/3/3 97/3/3 96/3/3
f 100/1/3 96/1/3 99/1/3
f 101/3/3 91/3/3 97/3/3
f 101/3/3 97/3/3 100/3/3
f 102/1/3 86/1/3 91/1/3
f 102/3/3 91/3/3 101/3/3
f 103/1/3 93/1/3 92/1/3
f 103/2/3 92/2/3 78/2/3
f 104/3/3 98/3/3 93/3/3
f 104/1/3 93/1/3 103/1/3
f 105/1/3 99/1/3 98/1/3
f 105/3/3 98/3/3 104/3/3
f 106/3/3 101/3/3 100/3/3
f 106/1/3 99/1/3 105/1/3
f 106/3/3 100/3/3 99/3/3
f 107/3/3 101/3/3 106/3/3
f 108/1/3 102/1/3 101/1/3
f 108/3/3 101/3/3 107/3/3
f 109/1/3 86/1/3 102/1/3
f 109/1/3 102/1/3 108/1/3
f 110/1/3 105/1/3 104/1/3
f 110/2/3 104/2/3 103/2/3
f 111/3/3 107/3/3 106/3/3
f 111/1/3 105/1/3 110/1/3
f 111/3/3 106/3/3 105/3/3
f 112/1/3 108/1/3 107/1/3
f 112/3/3 107/3/3 111/3/3
f 113/3/3 109/3/3 108/3/3
f 113/1/3 108/1/3 112/1/3
f 114/1/3 86/1/3 109/1/3
f 114/3/3 109/3/3 113/3/3
f 115/3/3 80/3/3 86/3/3
f 115/1/3 86/1/3 114/1/3
f 116/2/3 110/2/3 103/2/3
f 116/2/3 103/2/3 78/2/3
f 117/3/3 114/3/3 113/3/3
f 117/2/3 110/2/3 116/2/3
f 117/3/3 113/3/3 112/3/3
f 117/3/3 112/3/3 111/3/3
f 117/3/3 115/3/3 114/3/3
f 117/3/3 111/3/3 110/3/3
f 118/3/3 80/3/3 115/3/3
f 118/3/3 115/3/3 117/3/3
f 122/2/3 120/2/3 119/2/3
f 123/3/3 121/3/3 120/3/3
f 123/2/3 120/2/3 122/2/3
f 124/3/3 121/3/3 123/3/3
f 125/2/3 122/2/3 119/2/3
f 127/3/3 121/3/3 124/3/3
f 128/2/3 126/2/3 125/2/3
f 128/2/3 125/2/3 119/2/3
f 129/3/3 127/3/3 126/3/3
f 129/2/3 126/2/3 128/2/3
f 130/3/3 121/3/3 127/3/3
f 130/3/3 127/3/3 129/3/3
f 135/2/3 132/2/3 131/2/3
f 136/3/3 133/3/3 132/3/3
f 136/2/3 132/2/3 135/2/3
f 137/3/3 133/3/3 136/3/3
f 139/2/3 135/2/3 134/2/3
f 140/2/3 135/2/3 139/2/3
f 142/3/3 138/3/3 137/3/3
f 143/3/3 138/3/3 142/3/3
f 144/2/3 141/2/3 140/2/3
f 145/3/3 142/3/3 141/3/3
f 145/2/3 141/2/3 144/2/3
f 146/3/3 142/3/3 145/3/3
f 149/3/3 148/3/3 147/3/3
f 150/3/3 148/3/3 149/3/3
f 151/2/4 152/2/4 153/2/4
f 153/2/4 152/2/4 154/2/4
f 155/2/4 156/2/4 158/2/4
f 158/2/4 156/2/4 159/2/4
f 157/2/4 158/2/4 161/2/4
f 161/2/4 158/2/4 162/2/4
f 159/2/4 160/2/4 163/2/4
f 163/2/4 160/2/4 164/2/4
f 162/2/4 163/2/4 165/2/4
f 165/2/4 163/2/4 166/2/4
f 167/2/4 168/2/4 169/2/4
f 169/2/4 168/2/4 170/2/4
f 173/2/5 172/2/5 171/2/5
f 174/2/5 172/2/5 173/2/5
f 178/2/5 176/2/5 175/2/5
f 179/2/5 176/2/5 178/2/5
f 181/2/5 178/2/5 177/2/5
f 182/2/5 178/2/5 181/2/5
f 183/2/5 180/2/5 179/2/5
f 184/2/5 180/2/5 183/2/5
f 185/2/5 183/2/5 182/2/5
f 186/2/5 183/2/5 185/2/5
f 189/2/5 188/2/5 187/2/5
f 190/2/5 188/2/5 189/2/5
f 191/3/6 192/3/6 193/3/6
f 193/3/6 192/3/6 194/3/6
f 195/3/6 196/3/6 198/3/6
f 198/3/6 196/3/6 199/3/6
f 197/3/6 198/3/6 201/3/6
f 201/3/6 198/3/6 202/3/6
f 199/3/6 200/3/6 203/3/6
f 203/3/6 200/3/6 204/3/6
f 201/2/6 202/2/6 205/2/6
f 205/2/6 202/2/6 206/2/6
f 203/2/6 204/2/6 207/2/6
f 207/2/6 204/2/6 208/2/6
f 206/2/6 207/2/6 209/2/6
f 209/2/6 207/2/6 210/2/6
f 211/3/6 212/3/6 213/3/6
f 213/3/6 212/3/6 214/3/6
f 211/3/6 213/3/6 215/3/6
f 215/3/6 213/3/6 216/3/6
f 214/3/6 212/3/6 217/3/6
f 217/3/6 212/3/6 218/3/6
f 215/2/6 216/2/6 219/2/6
f 217/2/6 218/2/6 220/2/6
f 215/2/6 219/2/6 221/2/6
f 219/2/6 220/2/6 221/2/6
f 220/2/6 218/2/6 222/2/6
f 221/2/6 220/2/6 222/2/6
f 223/3/6 224/3/6 225/3/6
f 225/3/6 224/3/6 226/3/6
f 225/2/6 226/2/6 227/2/6
f 227/2/6 226/2/6 228/2/6
