# MagicaVoxel @ Ephtracy

# group
o 

# material
mtllib cornerSnake3.mtl
usemtl palette

# normals
vn -1 0 0
vn 1 0 0
vn 0 0 1
vn 0 0 -1
vn 0 -1 0
vn 0 1 0

# texcoords
vt 0.00976563 0.5
vt 0.353516 0.5
vt 0.404297 0.5

# verts
v -1 0.6 0.6
v -1 0.6 -0.8
v -1 1 0.6
v -1 1 -0.4
v -1 1.1 -0.3
v -1 1.1 -0.4
v -1 1.2 0.4
v -1 1.2 0.3
v -1 1.2 0.1
v -1 1.2 0
v -1 1.2 -0.2
v -1 1.2 -0.3
v -1 1.2 -0.4
v -1 1.3 0.4
v -1 1.3 0.3
v -1 1.3 0.1
v -1 1.3 0
v -1 1.3 -0.2
v -1 1.3 -0.3
v -1 1.4 -0.2
v -1 1.4 -0.3
v -1 1.5 -0.2
v -1 1.5 -0.3
v -1 1.6 0.5
v -1 1.6 0.3
v -1 1.6 0.2
v -1 1.6 0.1
v -1 1.7 0.5
v -1 1.7 0.3
v -1 1.7 0.2
v -1 1.7 0.1
v -1 1.8 0.2
v -1 1.8 0.1
v -1 1.9 0.2
v -1 1.9 0.1
v -1 2 0.6
v -1 2 -0.4
v -1 2 -0.8
v -0.7 0.3 0.6
v -0.7 0.3 -0.8
v -0.7 0.6 0.9
v -0.7 0.6 0.6
v -0.7 0.6 -0.8
v -0.7 0.6 -1.1
v -0.7 1 0.9
v -0.7 1 0.6
v -0.7 1.6 0.9
v -0.7 1.6 0.8
v -0.7 1.7 0.9
v -0.7 1.7 0.8
v -0.7 2 0.9
v -0.7 2 0.6
v -0.7 2 0.1
v -0.7 2 0
v -0.7 2 -0.4
v -0.7 2 -0.8
v -0.7 2 -1.1
v -0.7 2.3 0.6
v -0.7 2.3 -0.4
v -0.7 2.3 -0.8
v -0.5 0.8 1.1
v -0.5 0.8 0.9
v -0.5 1 1.1
v -0.5 1 0.9
v -0.5 1.8 1.1
v -0.5 1.8 0.9
v -0.5 2.3 0.4
v -0.5 2.3 -0.4
v -0.5 2.3 -0.6
v -0.5 2.5 0.4
v -0.5 2.5 -0.4
v -0.5 2.5 -0.6
v 0.5 0.8 1.1
v 0.5 0.8 0.9
v 0.5 1 1.1
v 0.5 1 0.9
v 0.5 1.3 1
v 0.5 1.3 0.9
v 0.5 1.4 1
v 0.5 1.4 0.9
v 0.5 1.8 1.1
v 0.5 1.8 0.9
v 0.5 2.3 0.4
v 0.5 2.3 -0.4
v 0.5 2.3 -0.6
v 0.5 2.5 0.4
v 0.5 2.5 -0.4
v 0.5 2.5 -0.6
v 0.7 0.3 0.6
v 0.7 0.3 -0.8
v 0.7 0.6 0.9
v 0.7 0.6 0.6
v 0.7 0.6 -0.8
v 0.7 0.6 -1.1
v 0.7 1 0.9
v 0.7 1 0.6
v 0.7 1.1 0.8
v 0.7 1.1 0.6
v 0.7 1.2 0.8
v 0.7 1.2 0.6
v 0.7 1.5 0.9
v 0.7 1.5 0.8
v 0.7 1.6 0.9
v 0.7 1.6 0.8
v 0.7 2 0.9
v 0.7 2 0.6
v 0.7 2 0
v 0.7 2 -0.1
v 0.7 2 -0.4
v 0.7 2 -0.8
v 0.7 2 -1.1
v 0.7 2.1 0
v 0.7 2.1 -0.1
v 0.7 2.2 0.6
v 0.7 2.2 0.5
v 0.7 2.3 0.6
v 0.7 2.3 0.5
v 0.7 2.3 -0.4
v 0.7 2.3 -0.8
v 1 0.6 0.6
v 1 0.6 -0.8
v 1 1 0.6
v 1 1 -0.4
v 1 1.2 0.2
v 1 1.2 0.1
v 1 1.2 -0.2
v 1 1.2 -0.3
v 1 1.3 0.2
v 1 1.3 0.1
v 1 1.3 -0.2
v 1 1.3 -0.3
v 1 1.5 0.2
v 1 1.5 0.1
v 1 1.6 0.2
v 1 1.6 0.1
v 1 1.8 0.2
v 1 1.8 0.1
v 1 1.9 0.2
v 1 1.9 0.1
v 1 2 0.6
v 1 2 -0.4
v 1 2 -0.8
v -0.5 0.8 1.1
v -0.5 1 1.1
v -0.5 1.8 1.1
v -0.3 1.1 1.1
v -0.3 1.2 1.1
v -0.2 1 1.1
v -0.2 1.1 1.1
v -0.2 1.4 1.1
v -0.2 1.6 1.1
v -0.1 1.1 1.1
v -0.1 1.2 1.1
v -0.1 1.3 1.1
v -0.1 1.4 1.1
v -0.1 1.5 1.1
v 0 0.9 1.1
v 0 1 1.1
v 0 1.1 1.1
v 0 1.2 1.1
v 0 1.3 1.1
v 0 1.4 1.1
v 0.1 1.1 1.1
v 0.1 1.2 1.1
v 0.1 1.3 1.1
v 0.1 1.4 1.1
v 0.1 1.5 1.1
v 0.2 0.9 1.1
v 0.2 1 1.1
v 0.2 1.1 1.1
v 0.2 1.2 1.1
v 0.2 1.3 1.1
v 0.2 1.4 1.1
v 0.2 1.5 1.1
v 0.3 1 1.1
v 0.3 1.1 1.1
v 0.3 1.3 1.1
v 0.3 1.4 1.1
v 0.3 1.5 1.1
v 0.3 1.6 1.1
v 0.5 0.8 1.1
v 0.5 1 1.1
v 0.5 1.8 1.1
v -0.7 0.6 0.9
v -0.7 1 0.9
v -0.7 1.6 0.9
v -0.7 1.7 0.9
v -0.7 2 0.9
v -0.6 1.6 0.9
v -0.6 1.7 0.9
v -0.6 1.9 0.9
v -0.6 2 0.9
v -0.5 0.8 0.9
v -0.5 1 0.9
v -0.5 1.8 0.9
v -0.5 1.9 0.9
v -0.5 2 0.9
v 0.5 0.8 0.9
v 0.5 1 0.9
v 0.5 1.3 0.9
v 0.5 1.4 0.9
v 0.5 1.8 0.9
v 0.6 1.5 0.9
v 0.6 1.6 0.9
v 0.7 0.6 0.9
v 0.7 1 0.9
v 0.7 1.5 0.9
v 0.7 1.6 0.9
v 0.7 2 0.9
v -1 0.6 0.6
v -1 1 0.6
v -1 2 0.6
v -0.7 0.3 0.6
v -0.7 0.6 0.6
v -0.7 1 0.6
v -0.7 2 0.6
v -0.7 2.3 0.6
v -0.1 2 0.6
v -0.1 2.1 0.6
v 0 2 0.6
v 0 2.1 0.6
v 0.3 2 0.6
v 0.4 2 0.6
v 0.6 2.2 0.6
v 0.6 2.3 0.6
v 0.7 0.3 0.6
v 0.7 0.6 0.6
v 0.7 1 0.6
v 0.7 1.1 0.6
v 0.7 1.2 0.6
v 0.7 2 0.6
v 0.7 2.2 0.6
v 0.7 2.3 0.6
v 1 0.6 0.6
v 1 1 0.6
v 1 2 0.6
v -0.5 2.3 0.4
v -0.5 2.5 0.4
v 0.5 2.3 0.4
v 0.5 2.5 0.4
v -0.5 2.3 -0.6
v -0.5 2.5 -0.6
v 0.5 2.3 -0.6
v 0.5 2.5 -0.6
v -1 0.6 -0.8
v -1 2 -0.8
v -0.7 0.3 -0.8
v -0.7 0.6 -0.8
v -0.7 2 -0.8
v -0.7 2.3 -0.8
v 0.7 0.3 -0.8
v 0.7 0.6 -0.8
v 0.7 2 -0.8
v 0.7 2.3 -0.8
v 1 0.6 -0.8
v 1 2 -0.8
v -0.7 0.6 -1.1
v -0.7 2 -1.1
v 0.7 0.6 -1.1
v 0.7 2 -1.1
v -0.7 0.3 0.6
v 0.7 0.3 0.6
v -0.7 0.3 -0.8
v 0.7 0.3 -0.8
v -0.7 0.6 0.9
v 0.7 0.6 0.9
v -1 0.6 0.6
v -0.7 0.6 0.6
v 0.7 0.6 0.6
v 1 0.6 0.6
v -1 0.6 -0.8
v -0.7 0.6 -0.8
v 0.7 0.6 -0.8
v 1 0.6 -0.8
v -0.7 0.6 -1.1
v 0.7 0.6 -1.1
v -0.5 0.8 1.1
v 0.5 0.8 1.1
v -0.5 0.8 0.9
v 0.5 0.8 0.9
v -0.5 1.8 1.1
v 0.5 1.8 1.1
v -0.5 1.8 0.9
v 0.5 1.8 0.9
v -0.7 2 0.9
v -0.6 2 0.9
v -0.5 2 0.9
v 0.7 2 0.9
v -0.6 2 0.8
v -0.5 2 0.8
v 0.3 2 0.7
v 0.4 2 0.7
v -1 2 0.6
v -0.7 2 0.6
v -0.1 2 0.6
v 0 2 0.6
v 0.3 2 0.6
v 0.4 2 0.6
v 0.7 2 0.6
v 1 2 0.6
v -0.8 2 0.1
v -0.7 2 0.1
v -0.8 2 0
v -0.7 2 0
v 0.7 2 0
v 0.7 2 -0.1
v -1 2 -0.4
v -0.7 2 -0.4
v 0.7 2 -0.4
v 1 2 -0.4
v -1 2 -0.8
v -0.7 2 -0.8
v 0.7 2 -0.8
v 1 2 -0.8
v -0.7 2 -1.1
v 0.7 2 -1.1
v -0.7 2.3 0.6
v 0.6 2.3 0.6
v 0.7 2.3 0.6
v 0.6 2.3 0.5
v 0.7 2.3 0.5
v -0.5 2.3 0.4
v 0.5 2.3 0.4
v -0.7 2.3 -0.4
v -0.5 2.3 -0.4
v 0.5 2.3 -0.4
v 0.7 2.3 -0.4
v -0.5 2.3 -0.6
v 0.5 2.3 -0.6
v -0.7 2.3 -0.8
v 0.7 2.3 -0.8
v -0.5 2.5 0.4
v 0.5 2.5 0.4
v -0.5 2.5 -0.4
v 0.5 2.5 -0.4
v -0.5 2.5 -0.6
v 0.5 2.5 -0.6

# faces
f 3/1/1 2/1/1 1/1/1
f 4/1/1 2/1/1 3/1/1
f 5/2/1 4/2/1 3/2/1
f 6/1/1 2/1/1 4/1/1
f 6/2/1 4/2/1 5/2/1
f 7/2/1 5/2/1 3/2/1
f 8/2/1 5/2/1 7/2/1
f 9/2/1 5/2/1 8/2/1
f 10/2/1 5/2/1 9/2/1
f 11/2/1 5/2/1 10/2/1
f 12/1/1 6/1/1 5/1/1
f 12/2/1 5/2/1 11/2/1
f 13/1/1 2/1/1 6/1/1
f 13/1/1 6/1/1 12/1/1
f 14/2/1 7/2/1 3/2/1
f 14/1/1 8/1/1 7/1/1
f 15/2/1 9/2/1 8/2/1
f 15/1/1 8/1/1 14/1/1
f 16/1/1 10/1/1 9/1/1
f 16/2/1 9/2/1 15/2/1
f 17/2/1 11/2/1 10/2/1
f 17/1/1 10/1/1 16/1/1
f 18/1/1 12/1/1 11/1/1
f 18/2/1 11/2/1 17/2/1
f 19/2/1 13/2/1 12/2/1
f 19/1/1 12/1/1 18/1/1
f 20/2/1 17/2/1 16/2/1
f 20/2/1 16/2/1 15/2/1
f 20/2/1 19/2/1 18/2/1
f 20/2/1 15/2/1 14/2/1
f 20/2/1 18/2/1 17/2/1
f 21/2/1 13/2/1 19/2/1
f 21/2/1 19/2/1 20/2/1
f 22/2/1 20/2/1 14/2/1
f 22/1/1 21/1/1 20/1/1
f 23/2/1 13/2/1 21/2/1
f 23/1/1 21/1/1 22/1/1
f 24/2/1 22/2/1 14/2/1
f 24/2/1 14/2/1 3/2/1
f 24/2/1 23/2/1 22/2/1
f 25/2/1 23/2/1 24/2/1
f 26/2/1 23/2/1 25/2/1
f 27/2/1 23/2/1 26/2/1
f 28/2/1 24/2/1 3/2/1
f 28/1/1 25/1/1 24/1/1
f 29/2/1 26/2/1 25/2/1
f 29/1/1 25/1/1 28/1/1
f 30/1/1 27/1/1 26/1/1
f 30/2/1 26/2/1 29/2/1
f 31/2/1 23/2/1 27/2/1
f 31/1/1 27/1/1 30/1/1
f 32/2/1 30/2/1 29/2/1
f 32/2/1 29/2/1 28/2/1
f 32/2/1 31/2/1 30/2/1
f 33/2/1 23/2/1 31/2/1
f 33/2/1 31/2/1 32/2/1
f 34/2/1 32/2/1 28/2/1
f 34/1/1 33/1/1 32/1/1
f 35/2/1 23/2/1 33/2/1
f 35/1/1 33/1/1 34/1/1
f 36/2/1 34/2/1 28/2/1
f 36/2/1 28/2/1 3/2/1
f 36/2/1 35/2/1 34/2/1
f 37/2/1 13/2/1 23/2/1
f 37/2/1 35/2/1 36/2/1
f 37/1/1 2/1/1 13/1/1
f 37/2/1 23/2/1 35/2/1
f 38/1/1 2/1/1 37/1/1
f 42/1/1 40/1/1 39/1/1
f 43/1/1 40/1/1 42/1/1
f 45/1/1 42/1/1 41/1/1
f 46/1/1 42/1/1 45/1/1
f 47/2/1 46/2/1 45/2/1
f 48/2/1 46/2/1 47/2/1
f 49/1/1 48/1/1 47/1/1
f 50/2/1 46/2/1 48/2/1
f 50/1/1 48/1/1 49/1/1
f 51/2/1 50/2/1 49/2/1
f 52/2/1 46/2/1 50/2/1
f 52/2/1 50/2/1 51/2/1
f 56/1/1 44/1/1 43/1/1
f 57/1/1 44/1/1 56/1/1
f 58/2/1 55/2/1 54/2/1
f 58/2/1 53/2/1 52/2/1
f 58/2/1 54/2/1 53/2/1
f 59/1/1 56/1/1 55/1/1
f 59/2/1 55/2/1 58/2/1
f 60/1/1 56/1/1 59/1/1
f 63/1/1 62/1/1 61/1/1
f 64/1/1 62/1/1 63/1/1
f 65/2/1 64/2/1 63/2/1
f 66/2/1 64/2/1 65/2/1
f 70/2/1 68/2/1 67/2/1
f 71/1/1 69/1/1 68/1/1
f 71/2/1 68/2/1 70/2/1
f 72/1/1 69/1/1 71/1/1
f 73/1/2 74/1/2 75/1/2
f 75/1/2 74/1/2 76/1/2
f 75/2/2 76/2/2 77/2/2
f 77/2/2 76/2/2 78/2/2
f 75/2/2 77/2/2 79/2/2
f 77/1/2 78/1/2 79/1/2
f 79/1/2 78/1/2 80/1/2
f 75/2/2 79/2/2 81/2/2
f 79/2/2 80/2/2 81/2/2
f 81/2/2 80/2/2 82/2/2
f 83/2/2 84/2/2 86/2/2
f 84/1/2 85/1/2 87/1/2
f 86/2/2 84/2/2 87/2/2
f 87/1/2 85/1/2 88/1/2
f 89/1/2 90/1/2 92/1/2
f 92/1/2 90/1/2 93/1/2
f 91/1/2 92/1/2 95/1/2
f 95/1/2 92/1/2 96/1/2
f 95/2/2 96/2/2 97/2/2
f 97/2/2 96/2/2 98/2/2
f 95/2/2 97/2/2 99/2/2
f 97/1/2 98/1/2 99/1/2
f 99/1/2 98/1/2 100/1/2
f 95/2/2 99/2/2 101/2/2
f 99/2/2 100/2/2 101/2/2
f 101/2/2 100/2/2 102/2/2
f 101/1/2 102/1/2 103/1/2
f 102/2/2 100/2/2 104/2/2
f 103/1/2 102/1/2 104/1/2
f 103/2/2 104/2/2 105/2/2
f 104/2/2 100/2/2 106/2/2
f 105/2/2 104/2/2 106/2/2
f 93/1/2 94/1/2 110/1/2
f 110/1/2 94/1/2 111/1/2
f 106/2/2 107/2/2 112/2/2
f 107/1/2 108/1/2 112/1/2
f 108/2/2 109/2/2 113/2/2
f 112/1/2 108/1/2 113/1/2
f 106/2/2 112/2/2 114/2/2
f 112/2/2 113/2/2 114/2/2
f 114/2/2 113/2/2 115/2/2
f 114/1/2 115/1/2 116/1/2
f 115/2/2 113/2/2 117/2/2
f 116/1/2 115/1/2 117/1/2
f 113/2/2 109/2/2 118/2/2
f 117/2/2 113/2/2 118/2/2
f 109/1/2 110/1/2 118/1/2
f 118/1/2 110/1/2 119/1/2
f 120/1/2 121/1/2 122/1/2
f 122/1/2 121/1/2 123/1/2
f 122/2/2 123/2/2 124/2/2
f 124/2/2 123/2/2 125/2/2
f 125/2/2 123/2/2 126/2/2
f 126/2/2 123/2/2 127/2/2
f 122/2/2 124/2/2 128/2/2
f 124/1/2 125/1/2 128/1/2
f 125/2/2 126/2/2 129/2/2
f 128/1/2 125/1/2 129/1/2
f 126/1/2 127/1/2 130/1/2
f 129/2/2 126/2/2 130/2/2
f 127/2/2 123/2/2 131/2/2
f 130/1/2 127/1/2 131/1/2
f 129/2/2 130/2/2 132/2/2
f 128/2/2 129/2/2 132/2/2
f 130/2/2 131/2/2 132/2/2
f 122/2/2 128/2/2 132/2/2
f 132/2/2 131/2/2 133/2/2
f 122/2/2 132/2/2 134/2/2
f 132/1/2 133/1/2 134/1/2
f 133/2/2 131/2/2 135/2/2
f 134/1/2 133/1/2 135/1/2
f 122/2/2 134/2/2 136/2/2
f 134/2/2 135/2/2 136/2/2
f 135/2/2 131/2/2 137/2/2
f 136/2/2 135/2/2 137/2/2
f 122/2/2 136/2/2 138/2/2
f 136/1/2 137/1/2 138/1/2
f 137/2/2 131/2/2 139/2/2
f 138/1/2 137/1/2 139/1/2
f 122/2/2 138/2/2 140/2/2
f 138/2/2 139/2/2 140/2/2
f 123/1/2 121/1/2 141/1/2
f 140/2/2 139/2/2 141/2/2
f 131/2/2 123/2/2 141/2/2
f 139/2/2 131/2/2 141/2/2
f 141/1/2 121/1/2 142/1/2
f 146/2/3 145/2/3 144/2/3
f 147/2/3 145/2/3 146/2/3
f 148/1/3 144/1/3 143/1/3
f 148/2/3 146/2/3 144/2/3
f 149/3/3 147/3/3 146/3/3
f 149/2/3 146/2/3 148/2/3
f 150/2/3 145/2/3 147/2/3
f 151/2/3 145/2/3 150/2/3
f 152/3/3 147/3/3 149/3/3
f 152/3/3 149/3/3 148/3/3
f 153/2/3 150/2/3 147/2/3
f 153/3/3 147/3/3 152/3/3
f 154/2/3 150/2/3 153/2/3
f 155/3/3 151/3/3 150/3/3
f 155/2/3 150/2/3 154/2/3
f 156/3/3 151/3/3 155/3/3
f 157/1/3 148/1/3 143/1/3
f 158/3/3 152/3/3 148/3/3
f 158/1/3 148/1/3 157/1/3
f 159/2/3 154/2/3 153/2/3
f 159/3/3 152/3/3 158/3/3
f 159/2/3 153/2/3 152/2/3
f 160/2/3 154/2/3 159/2/3
f 161/3/3 155/3/3 154/3/3
f 161/2/3 154/2/3 160/2/3
f 162/2/3 156/2/3 155/2/3
f 162/3/3 155/3/3 161/3/3
f 163/2/3 160/2/3 159/2/3
f 163/2/3 159/2/3 158/2/3
f 164/3/3 161/3/3 160/3/3
f 164/2/3 160/2/3 163/2/3
f 165/2/3 162/2/3 161/2/3
f 165/3/3 161/3/3 164/3/3
f 166/2/3 156/2/3 162/2/3
f 166/2/3 162/2/3 165/2/3
f 167/3/3 151/3/3 156/3/3
f 167/2/3 156/2/3 166/2/3
f 168/3/3 158/3/3 157/3/3
f 168/1/3 157/1/3 143/1/3
f 169/2/3 163/2/3 158/2/3
f 169/3/3 158/3/3 168/3/3
f 170/3/3 164/3/3 163/3/3
f 170/2/3 163/2/3 169/2/3
f 171/2/3 166/2/3 165/2/3
f 171/3/3 164/3/3 170/3/3
f 171/2/3 165/2/3 164/2/3
f 172/2/3 166/2/3 171/2/3
f 173/3/3 167/3/3 166/3/3
f 173/2/3 166/2/3 172/2/3
f 174/3/3 151/3/3 167/3/3
f 174/3/3 167/3/3 173/3/3
f 175/3/3 170/3/3 169/3/3
f 175/1/3 169/1/3 168/1/3
f 176/2/3 172/2/3 171/2/3
f 176/3/3 170/3/3 175/3/3
f 176/2/3 171/2/3 170/2/3
f 177/3/3 173/3/3 172/3/3
f 177/2/3 172/2/3 176/2/3
f 178/2/3 174/2/3 173/2/3
f 178/3/3 173/3/3 177/3/3
f 179/3/3 151/3/3 174/3/3
f 179/2/3 174/2/3 178/2/3
f 180/2/3 145/2/3 151/2/3
f 180/3/3 151/3/3 179/3/3
f 181/1/3 175/1/3 168/1/3
f 181/1/3 168/1/3 143/1/3
f 182/2/3 179/2/3 178/2/3
f 182/1/3 175/1/3 181/1/3
f 182/2/3 178/2/3 177/2/3
f 182/2/3 177/2/3 176/2/3
f 182/2/3 180/2/3 179/2/3
f 182/2/3 176/2/3 175/2/3
f 183/2/3 145/2/3 180/2/3
f 183/2/3 180/2/3 182/2/3
f 189/2/3 186/2/3 185/2/3
f 189/1/3 187/1/3 186/1/3
f 190/2/3 188/2/3 187/2/3
f 190/1/3 187/1/3 189/1/3
f 191/2/3 188/2/3 190/2/3
f 192/2/3 188/2/3 191/2/3
f 193/1/3 185/1/3 184/1/3
f 194/2/3 189/2/3 185/2/3
f 194/1/3 185/1/3 193/1/3
f 194/2/3 190/2/3 189/2/3
f 194/2/3 191/2/3 190/2/3
f 195/2/3 191/2/3 194/2/3
f 196/1/3 192/1/3 191/1/3
f 196/2/3 191/2/3 195/2/3
f 197/1/3 192/1/3 196/1/3
f 198/1/3 193/1/3 184/1/3
f 202/2/3 197/2/3 196/2/3
f 202/2/3 196/2/3 195/2/3
f 203/2/3 201/2/3 200/2/3
f 203/2/3 202/2/3 201/2/3
f 203/2/3 200/2/3 199/2/3
f 204/2/3 202/2/3 203/2/3
f 205/1/3 198/1/3 184/1/3
f 205/1/3 199/1/3 198/1/3
f 206/2/3 203/2/3 199/2/3
f 206/1/3 199/1/3 205/1/3
f 207/1/3 204/1/3 203/1/3
f 207/2/3 203/2/3 206/2/3
f 208/2/3 202/2/3 204/2/3
f 208/1/3 204/1/3 207/1/3
f 209/2/3 197/2/3 202/2/3
f 209/2/3 202/2/3 208/2/3
f 214/1/3 211/1/3 210/1/3
f 215/2/3 212/2/3 211/2/3
f 215/1/3 211/1/3 214/1/3
f 216/2/3 212/2/3 215/2/3
f 218/2/3 217/2/3 216/2/3
f 219/2/3 217/2/3 218/2/3
f 220/1/3 219/1/3 218/1/3
f 221/2/3 217/2/3 219/2/3
f 221/1/3 219/1/3 220/1/3
f 222/2/3 221/2/3 220/2/3
f 223/2/3 221/2/3 222/2/3
f 224/2/3 217/2/3 221/2/3
f 224/2/3 221/2/3 223/2/3
f 225/2/3 217/2/3 224/2/3
f 226/1/3 214/1/3 213/1/3
f 227/1/3 214/1/3 226/1/3
f 231/2/3 224/2/3 223/2/3
f 232/1/3 225/1/3 224/1/3
f 232/2/3 224/2/3 231/2/3
f 233/1/3 225/1/3 232/1/3
f 234/1/3 228/1/3 227/1/3
f 235/2/3 230/2/3 229/2/3
f 235/1/3 228/1/3 234/1/3
f 235/2/3 231/2/3 230/2/3
f 235/2/3 229/2/3 228/2/3
f 236/2/3 231/2/3 235/2/3
f 239/2/3 238/2/3 237/2/3
f 240/2/3 238/2/3 239/2/3
f 241/1/4 242/1/4 243/1/4
f 243/1/4 242/1/4 244/1/4
f 245/1/4 246/1/4 248/1/4
f 248/1/4 246/1/4 249/1/4
f 247/1/4 248/1/4 251/1/4
f 251/1/4 248/1/4 252/1/4
f 249/1/4 250/1/4 253/1/4
f 253/1/4 250/1/4 254/1/4
f 252/1/4 253/1/4 255/1/4
f 255/1/4 253/1/4 256/1/4
f 257/1/4 258/1/4 259/1/4
f 259/1/4 258/1/4 260/1/4
f 263/1/5 262/1/5 261/1/5
f 264/1/5 262/1/5 263/1/5
f 268/1/5 266/1/5 265/1/5
f 269/1/5 266/1/5 268/1/5
f 271/1/5 268/1/5 267/1/5
f 272/1/5 268/1/5 271/1/5
f 273/1/5 270/1/5 269/1/5
f 274/1/5 270/1/5 273/1/5
f 275/1/5 273/1/5 272/1/5
f 276/1/5 273/1/5 275/1/5
f 279/1/5 278/1/5 277/1/5
f 280/1/5 278/1/5 279/1/5
f 281/2/6 282/2/6 283/2/6
f 283/2/6 282/2/6 284/2/6
f 285/2/6 286/2/6 289/2/6
f 286/1/6 287/1/6 289/1/6
f 287/2/6 288/2/6 290/2/6
f 289/1/6 287/1/6 290/1/6
f 289/2/6 290/2/6 291/2/6
f 290/2/6 288/2/6 291/2/6
f 291/2/6 288/2/6 292/2/6
f 285/2/6 289/2/6 294/2/6
f 289/2/6 291/2/6 294/2/6
f 294/2/6 291/2/6 295/2/6
f 295/2/6 291/2/6 296/2/6
f 291/1/6 292/1/6 297/1/6
f 296/2/6 291/2/6 297/2/6
f 292/2/6 288/2/6 298/2/6
f 297/1/6 292/1/6 298/1/6
f 298/2/6 288/2/6 299/2/6
f 293/2/6 294/2/6 301/2/6
f 301/2/6 294/2/6 302/2/6
f 293/2/6 301/2/6 303/2/6
f 301/1/6 302/1/6 303/1/6
f 303/1/6 302/1/6 304/1/6
f 299/2/6 300/2/6 305/2/6
f 305/2/6 300/2/6 306/2/6
f 303/2/6 304/2/6 307/2/6
f 293/2/6 303/2/6 307/2/6
f 307/2/6 304/2/6 308/2/6
f 306/2/6 300/2/6 309/2/6
f 309/2/6 300/2/6 310/2/6
f 307/1/6 308/1/6 311/1/6
f 311/1/6 308/1/6 312/1/6
f 309/1/6 310/1/6 313/1/6
f 313/1/6 310/1/6 314/1/6
f 312/1/6 313/1/6 315/1/6
f 315/1/6 313/1/6 316/1/6
f 317/2/6 318/2/6 320/2/6
f 318/1/6 319/1/6 320/1/6
f 320/1/6 319/1/6 321/1/6
f 317/2/6 320/2/6 322/2/6
f 320/2/6 321/2/6 322/2/6
f 322/2/6 321/2/6 323/2/6
f 317/2/6 322/2/6 324/2/6
f 324/2/6 322/2/6 325/2/6
f 323/2/6 321/2/6 326/2/6
f 326/2/6 321/2/6 327/2/6
f 324/1/6 325/1/6 328/1/6
f 326/1/6 327/1/6 329/1/6
f 324/1/6 328/1/6 330/1/6
f 328/1/6 329/1/6 330/1/6
f 329/1/6 327/1/6 331/1/6
f 330/1/6 329/1/6 331/1/6
f 332/2/6 333/2/6 334/2/6
f 334/2/6 333/2/6 335/2/6
f 334/1/6 335/1/6 336/1/6
f 336/1/6 335/1/6 337/1/6
