# MagicaVoxel @ Ephtracy

# group
o 

# material
mtllib smoothSnake3.mtl
usemtl palette

# normals
vn -1 0 0
vn 1 0 0
vn 0 0 1
vn 0 0 -1
vn 0 -1 0
vn 0 1 0

# texcoords
vt 0.00976563 0.5
vt 0.353516 0.5

# verts
v -1 0.6 0.6
v -1 0.6 -0.8
v -1 1 0.6
v -1 1 -0.8
v -1 1.1 0.1
v -1 1.1 0
v -1 1.2 0.1
v -1 1.2 0
v -1 1.4 -0.5
v -1 1.4 -0.6
v -1 1.5 0.3
v -1 1.5 0.2
v -1 1.5 -0.2
v -1 1.5 -0.3
v -1 1.5 -0.5
v -1 1.5 -0.6
v -1 1.6 0.3
v -1 1.6 0.2
v -1 1.6 -0.2
v -1 1.6 -0.3
v -1 1.7 0.1
v -1 1.7 0
v -1 1.8 0.1
v -1 1.8 0
v -1 1.8 -0.1
v -1 1.8 -0.4
v -1 1.8 -0.5
v -1 1.9 0
v -1 1.9 -0.1
v -1 1.9 -0.4
v -1 1.9 -0.5
v -1 2 0.6
v -1 2 -0.8
v -0.7 0.3 0.6
v -0.7 0.3 -0.8
v -0.7 0.6 0.9
v -0.7 0.6 0.6
v -0.7 0.6 -0.8
v -0.7 0.6 -1.1
v -0.7 1 0.9
v -0.7 1 0.6
v -0.7 1 -0.8
v -0.7 1 -1.1
v -0.7 1.5 0.7
v -0.7 1.5 0.6
v -0.7 1.6 0.7
v -0.7 1.6 0.6
v -0.7 1.9 0.9
v -0.7 1.9 0.8
v -0.7 2 0.9
v -0.7 2 0.8
v -0.7 2 0.6
v -0.7 2 -0.8
v -0.7 2 -1.1
v -0.7 2.3 0.6
v -0.7 2.3 -0.8
v -0.5 0.8 1.1
v -0.5 0.8 0.9
v -0.5 0.8 -1.1
v -0.5 0.8 -1.3
v -0.5 1 1.1
v -0.5 1 0.9
v -0.5 1 -1.1
v -0.5 1 -1.3
v -0.5 1.5 -1.1
v -0.5 1.5 -1.2
v -0.5 1.6 -1.1
v -0.5 1.6 -1.2
v -0.5 1.8 1.1
v -0.5 1.8 0.9
v -0.5 1.8 -1.1
v -0.5 1.8 -1.3
v 0.5 0.8 1.1
v 0.5 0.8 0.9
v 0.5 0.8 -1.1
v 0.5 0.8 -1.3
v 0.5 1 1.1
v 0.5 1 0.9
v 0.5 1 -1.1
v 0.5 1 -1.3
v 0.5 1.4 1
v 0.5 1.4 0.9
v 0.5 1.5 1
v 0.5 1.5 0.9
v 0.5 1.8 1.1
v 0.5 1.8 0.9
v 0.5 1.8 -1.1
v 0.5 1.8 -1.3
v 0.7 0.3 0.6
v 0.7 0.3 -0.8
v 0.7 0.6 0.9
v 0.7 0.6 0.6
v 0.7 0.6 -0.8
v 0.7 0.6 -1.1
v 0.7 1 0.9
v 0.7 1 0.6
v 0.7 1 -0.8
v 0.7 1 -1.1
v 0.7 1.2 -1
v 0.7 1.2 -1.1
v 0.7 1.3 -1
v 0.7 1.3 -1.1
v 0.7 1.4 0.8
v 0.7 1.4 0.7
v 0.7 1.5 0.8
v 0.7 1.5 0.7
v 0.7 2 0.9
v 0.7 2 0.6
v 0.7 2 -0.8
v 0.7 2 -1.1
v 0.7 2.3 0.6
v 0.7 2.3 -0.8
v 1 0.6 0.6
v 1 0.6 -0.8
v 1 1 0.6
v 1 1 -0.3
v 1 1 -0.4
v 1 1 -0.8
v 1 1.2 0.5
v 1 1.2 0.3
v 1 1.2 0.2
v 1 1.2 0.1
v 1 1.2 -0.3
v 1 1.2 -0.4
v 1 1.3 0.5
v 1 1.3 0.3
v 1 1.3 0.2
v 1 1.3 0.1
v 1 1.3 -0.2
v 1 1.3 -0.3
v 1 1.4 -0.2
v 1 1.4 -0.3
v 1 1.5 0.2
v 1 1.5 0.1
v 1 1.5 -0.3
v 1 1.5 -0.4
v 1 1.6 0.2
v 1 1.6 0.1
v 1 1.6 -0.3
v 1 1.6 -0.4
v 1 1.8 -0.3
v 1 1.8 -0.4
v 1 1.8 -0.5
v 1 1.8 -0.6
v 1 1.9 0.2
v 1 1.9 0.1
v 1 1.9 -0.3
v 1 1.9 -0.4
v 1 1.9 -0.5
v 1 1.9 -0.6
v 1 2 0.6
v 1 2 0.2
v 1 2 0.1
v 1 2 -0.8
v -0.5 0.8 1.1
v -0.5 1 1.1
v -0.5 1.8 1.1
v 0.5 0.8 1.1
v 0.5 1 1.1
v 0.5 1.8 1.1
v -0.7 0.6 0.9
v -0.7 1 0.9
v -0.7 1.9 0.9
v -0.7 2 0.9
v -0.6 1.9 0.9
v -0.6 2 0.9
v -0.5 0.8 0.9
v -0.5 1 0.9
v -0.5 1.8 0.9
v 0.5 0.8 0.9
v 0.5 1 0.9
v 0.5 1.4 0.9
v 0.5 1.5 0.9
v 0.5 1.8 0.9
v 0.7 0.6 0.9
v 0.7 1 0.9
v 0.7 2 0.9
v -1 0.6 0.6
v -1 1 0.6
v -1 2 0.6
v -0.7 0.3 0.6
v -0.7 0.6 0.6
v -0.7 1 0.6
v -0.7 1.5 0.6
v -0.7 1.6 0.6
v -0.7 2 0.6
v -0.7 2.3 0.6
v 0.7 0.3 0.6
v 0.7 0.6 0.6
v 0.7 1 0.6
v 0.7 2 0.6
v 0.7 2.3 0.6
v 1 0.6 0.6
v 1 1 0.6
v 1 2 0.6
v -1 0.6 -0.8
v -1 1 -0.8
v -1 2 -0.8
v -0.7 0.3 -0.8
v -0.7 0.6 -0.8
v -0.7 1 -0.8
v -0.7 2 -0.8
v -0.7 2.3 -0.8
v 0.7 0.3 -0.8
v 0.7 0.6 -0.8
v 0.7 1 -0.8
v 0.7 2 -0.8
v 0.7 2.3 -0.8
v 1 0.6 -0.8
v 1 1 -0.8
v 1 2 -0.8
v -0.7 0.6 -1.1
v -0.7 1 -1.1
v -0.7 2 -1.1
v -0.5 0.8 -1.1
v -0.5 1 -1.1
v -0.5 1.5 -1.1
v -0.5 1.6 -1.1
v -0.5 1.8 -1.1
v 0.5 0.8 -1.1
v 0.5 1 -1.1
v 0.5 1.8 -1.1
v 0.6 1.2 -1.1
v 0.6 1.3 -1.1
v 0.7 0.6 -1.1
v 0.7 1 -1.1
v 0.7 1.2 -1.1
v 0.7 1.3 -1.1
v 0.7 2 -1.1
v -0.5 0.8 -1.3
v -0.5 1 -1.3
v -0.5 1.8 -1.3
v 0.5 0.8 -1.3
v 0.5 1 -1.3
v 0.5 1.8 -1.3
v -0.7 0.3 0.6
v 0.7 0.3 0.6
v -0.7 0.3 -0.8
v 0.7 0.3 -0.8
v -0.7 0.6 0.9
v 0.7 0.6 0.9
v -1 0.6 0.6
v -0.7 0.6 0.6
v 0.7 0.6 0.6
v 1 0.6 0.6
v -1 0.6 -0.8
v -0.7 0.6 -0.8
v 0.7 0.6 -0.8
v 1 0.6 -0.8
v -0.7 0.6 -1.1
v 0.7 0.6 -1.1
v -0.5 0.8 1.1
v 0.5 0.8 1.1
v -0.5 0.8 0.9
v 0.5 0.8 0.9
v -0.5 0.8 -1.1
v 0.5 0.8 -1.1
v -0.5 0.8 -1.3
v 0.5 0.8 -1.3
v -0.5 1.8 1.1
v 0.5 1.8 1.1
v -0.5 1.8 0.9
v 0.5 1.8 0.9
v -0.5 1.8 -1.1
v 0.5 1.8 -1.1
v -0.5 1.8 -1.3
v 0.5 1.8 -1.3
v -0.7 2 0.9
v -0.6 2 0.9
v 0.7 2 0.9
v -0.7 2 0.8
v -0.6 2 0.8
v -1 2 0.6
v -0.7 2 0.6
v 0.7 2 0.6
v 1 2 0.6
v 0.9 2 0.2
v 1 2 0.2
v 0.9 2 0.1
v 1 2 0.1
v -1 2 -0.8
v -0.7 2 -0.8
v 0.7 2 -0.8
v 1 2 -0.8
v -0.1 2 -0.9
v 0 2 -0.9
v -0.1 2 -1
v 0 2 -1
v -0.7 2 -1.1
v 0.7 2 -1.1
v -0.7 2.3 0.6
v 0.7 2.3 0.6
v -0.3 2.3 0.4
v -0.2 2.3 0.4
v 0.5 2.3 0.4
v 0.6 2.3 0.4
v -0.3 2.3 0.3
v -0.2 2.3 0.3
v 0.5 2.3 0.3
v 0.6 2.3 0.3
v -0.1 2.3 0.2
v 0 2.3 0.2
v -0.1 2.3 0.1
v 0 2.3 0.1
v 0.3 2.3 0.1
v 0.4 2.3 0.1
v 0.3 2.3 0
v 0.4 2.3 0
v -0.4 2.3 -0.2
v -0.3 2.3 -0.2
v -0.1 2.3 -0.2
v 0 2.3 -0.2
v -0.4 2.3 -0.3
v -0.3 2.3 -0.3
v -0.1 2.3 -0.3
v 0 2.3 -0.3
v 0 2.3 -0.4
v 0.1 2.3 -0.4
v 0 2.3 -0.5
v 0.1 2.3 -0.5
v 0.2 2.3 -0.5
v 0.1 2.3 -0.6
v 0.2 2.3 -0.6
v -0.7 2.3 -0.8
v 0.7 2.3 -0.8

# faces
f 3/1/1 2/1/1 1/1/1
f 4/1/1 2/1/1 3/1/1
f 5/2/1 4/2/1 3/2/1
f 6/2/1 4/2/1 5/2/1
f 7/2/1 5/2/1 3/2/1
f 7/1/1 6/1/1 5/1/1
f 8/2/1 4/2/1 6/2/1
f 8/1/1 6/1/1 7/1/1
f 9/2/1 8/2/1 7/2/1
f 9/2/1 4/2/1 8/2/1
f 10/2/1 4/2/1 9/2/1
f 11/2/1 7/2/1 3/2/1
f 11/2/1 9/2/1 7/2/1
f 12/2/1 9/2/1 11/2/1
f 13/2/1 9/2/1 12/2/1
f 14/2/1 9/2/1 13/2/1
f 15/1/1 10/1/1 9/1/1
f 15/2/1 9/2/1 14/2/1
f 16/2/1 4/2/1 10/2/1
f 16/1/1 10/1/1 15/1/1
f 17/2/1 11/2/1 3/2/1
f 17/1/1 12/1/1 11/1/1
f 18/2/1 13/2/1 12/2/1
f 18/1/1 12/1/1 17/1/1
f 19/1/1 14/1/1 13/1/1
f 19/2/1 13/2/1 18/2/1
f 20/2/1 15/2/1 14/2/1
f 20/1/1 14/1/1 19/1/1
f 20/2/1 16/2/1 15/2/1
f 21/2/1 19/2/1 18/2/1
f 21/2/1 18/2/1 17/2/1
f 21/2/1 20/2/1 19/2/1
f 22/2/1 20/2/1 21/2/1
f 23/2/1 21/2/1 17/2/1
f 23/1/1 22/1/1 21/1/1
f 24/2/1 20/2/1 22/2/1
f 24/1/1 22/1/1 23/1/1
f 25/2/1 20/2/1 24/2/1
f 26/2/1 16/2/1 20/2/1
f 26/2/1 20/2/1 25/2/1
f 27/2/1 16/2/1 26/2/1
f 28/1/1 25/1/1 24/1/1
f 28/2/1 24/2/1 23/2/1
f 29/2/1 26/2/1 25/2/1
f 29/1/1 25/1/1 28/1/1
f 30/1/1 27/1/1 26/1/1
f 30/2/1 26/2/1 29/2/1
f 31/2/1 16/2/1 27/2/1
f 31/1/1 27/1/1 30/1/1
f 32/2/1 30/2/1 29/2/1
f 32/2/1 17/2/1 3/2/1
f 32/2/1 31/2/1 30/2/1
f 32/2/1 28/2/1 23/2/1
f 32/2/1 29/2/1 28/2/1
f 32/2/1 23/2/1 17/2/1
f 33/2/1 16/2/1 31/2/1
f 33/2/1 31/2/1 32/2/1
f 33/2/1 4/2/1 16/2/1
f 37/1/1 35/1/1 34/1/1
f 38/1/1 35/1/1 37/1/1
f 40/1/1 37/1/1 36/1/1
f 41/1/1 37/1/1 40/1/1
f 42/1/1 39/1/1 38/1/1
f 43/1/1 39/1/1 42/1/1
f 44/2/1 41/2/1 40/2/1
f 45/2/1 41/2/1 44/2/1
f 46/2/1 44/2/1 40/2/1
f 46/1/1 45/1/1 44/1/1
f 47/1/1 45/1/1 46/1/1
f 48/2/1 46/2/1 40/2/1
f 48/2/1 47/2/1 46/2/1
f 49/2/1 47/2/1 48/2/1
f 50/1/1 49/1/1 48/1/1
f 51/2/1 47/2/1 49/2/1
f 51/1/1 49/1/1 50/1/1
f 52/2/1 47/2/1 51/2/1
f 53/2/1 43/2/1 42/2/1
f 54/2/1 43/2/1 53/2/1
f 55/2/1 53/2/1 52/2/1
f 56/2/1 53/2/1 55/2/1
f 61/1/1 58/1/1 57/1/1
f 62/1/1 58/1/1 61/1/1
f 63/1/1 60/1/1 59/1/1
f 64/1/1 60/1/1 63/1/1
f 65/2/1 64/2/1 63/2/1
f 66/2/1 64/2/1 65/2/1
f 67/1/1 66/1/1 65/1/1
f 68/2/1 64/2/1 66/2/1
f 68/1/1 66/1/1 67/1/1
f 69/2/1 62/2/1 61/2/1
f 70/2/1 62/2/1 69/2/1
f 71/2/1 68/2/1 67/2/1
f 72/2/1 64/2/1 68/2/1
f 72/2/1 68/2/1 71/2/1
f 73/1/2 74/1/2 77/1/2
f 77/1/2 74/1/2 78/1/2
f 75/1/2 76/1/2 79/1/2
f 79/1/2 76/1/2 80/1/2
f 77/2/2 78/2/2 81/2/2
f 81/2/2 78/2/2 82/2/2
f 77/2/2 81/2/2 83/2/2
f 81/1/2 82/1/2 83/1/2
f 83/1/2 82/1/2 84/1/2
f 77/2/2 83/2/2 85/2/2
f 83/2/2 84/2/2 85/2/2
f 85/2/2 84/2/2 86/2/2
f 79/2/2 80/2/2 87/2/2
f 87/2/2 80/2/2 88/2/2
f 89/1/2 90/1/2 92/1/2
f 92/1/2 90/1/2 93/1/2
f 91/1/2 92/1/2 95/1/2
f 95/1/2 92/1/2 96/1/2
f 93/1/2 94/1/2 97/1/2
f 97/1/2 94/1/2 98/1/2
f 97/2/2 98/2/2 99/2/2
f 99/2/2 98/2/2 100/2/2
f 97/2/2 99/2/2 101/2/2
f 99/1/2 100/1/2 101/1/2
f 101/1/2 100/1/2 102/1/2
f 95/2/2 96/2/2 103/2/2
f 103/2/2 96/2/2 104/2/2
f 95/2/2 103/2/2 105/2/2
f 103/1/2 104/1/2 105/1/2
f 104/2/2 96/2/2 106/2/2
f 105/1/2 104/1/2 106/1/2
f 95/2/2 105/2/2 107/2/2
f 105/2/2 106/2/2 107/2/2
f 106/2/2 96/2/2 108/2/2
f 107/2/2 106/2/2 108/2/2
f 97/2/2 101/2/2 109/2/2
f 101/2/2 102/2/2 109/2/2
f 109/2/2 102/2/2 110/2/2
f 108/2/2 109/2/2 111/2/2
f 111/2/2 109/2/2 112/2/2
f 113/1/2 114/1/2 115/1/2
f 115/1/2 114/1/2 116/1/2
f 116/1/2 114/1/2 117/1/2
f 117/1/2 114/1/2 118/1/2
f 115/2/2 116/2/2 119/2/2
f 119/2/2 116/2/2 120/2/2
f 120/2/2 116/2/2 121/2/2
f 121/2/2 116/2/2 122/2/2
f 116/1/2 117/1/2 123/1/2
f 122/2/2 116/2/2 123/2/2
f 117/2/2 118/2/2 124/2/2
f 123/1/2 117/1/2 124/1/2
f 115/2/2 119/2/2 125/2/2
f 119/1/2 120/1/2 125/1/2
f 120/2/2 121/2/2 126/2/2
f 125/1/2 120/1/2 126/1/2
f 121/1/2 122/1/2 127/1/2
f 126/2/2 121/2/2 127/2/2
f 122/2/2 123/2/2 128/2/2
f 127/1/2 122/1/2 128/1/2
f 123/2/2 124/2/2 128/2/2
f 128/2/2 124/2/2 129/2/2
f 129/2/2 124/2/2 130/2/2
f 125/2/2 126/2/2 131/2/2
f 126/2/2 127/2/2 131/2/2
f 129/1/2 130/1/2 131/1/2
f 128/2/2 129/2/2 131/2/2
f 127/2/2 128/2/2 131/2/2
f 130/2/2 124/2/2 132/2/2
f 131/1/2 130/1/2 132/1/2
f 125/2/2 131/2/2 133/2/2
f 131/2/2 132/2/2 133/2/2
f 133/2/2 132/2/2 134/2/2
f 132/2/2 124/2/2 135/2/2
f 134/2/2 132/2/2 135/2/2
f 124/2/2 118/2/2 136/2/2
f 135/2/2 124/2/2 136/2/2
f 133/1/2 134/1/2 137/1/2
f 125/2/2 133/2/2 137/2/2
f 134/2/2 135/2/2 138/2/2
f 137/1/2 134/1/2 138/1/2
f 135/1/2 136/1/2 139/1/2
f 138/2/2 135/2/2 139/2/2
f 136/2/2 118/2/2 140/2/2
f 139/1/2 136/1/2 140/1/2
f 138/2/2 139/2/2 141/2/2
f 137/2/2 138/2/2 141/2/2
f 139/2/2 140/2/2 141/2/2
f 140/2/2 118/2/2 142/2/2
f 141/2/2 140/2/2 142/2/2
f 142/2/2 118/2/2 143/2/2
f 143/2/2 118/2/2 144/2/2
f 137/2/2 141/2/2 145/2/2
f 125/2/2 137/2/2 145/2/2
f 145/2/2 141/2/2 146/2/2
f 141/1/2 142/1/2 147/1/2
f 146/2/2 141/2/2 147/2/2
f 142/2/2 143/2/2 148/2/2
f 147/1/2 142/1/2 148/1/2
f 143/1/2 144/1/2 149/1/2
f 148/2/2 143/2/2 149/2/2
f 144/2/2 118/2/2 150/2/2
f 149/1/2 144/1/2 150/1/2
f 115/2/2 125/2/2 151/2/2
f 125/2/2 145/2/2 151/2/2
f 145/1/2 146/1/2 152/1/2
f 151/2/2 145/2/2 152/2/2
f 148/2/2 149/2/2 153/2/2
f 152/1/2 146/1/2 153/1/2
f 147/2/2 148/2/2 153/2/2
f 149/2/2 150/2/2 153/2/2
f 146/2/2 147/2/2 153/2/2
f 150/2/2 118/2/2 154/2/2
f 153/2/2 150/2/2 154/2/2
f 158/1/3 156/1/3 155/1/3
f 159/2/3 157/2/3 156/2/3
f 159/1/3 156/1/3 158/1/3
f 160/2/3 157/2/3 159/2/3
f 165/2/3 163/2/3 162/2/3
f 165/1/3 164/1/3 163/1/3
f 166/1/3 164/1/3 165/1/3
f 167/1/3 162/1/3 161/1/3
f 168/2/3 165/2/3 162/2/3
f 168/1/3 162/1/3 167/1/3
f 168/2/3 166/2/3 165/2/3
f 169/2/3 166/2/3 168/2/3
f 170/1/3 167/1/3 161/1/3
f 174/2/3 166/2/3 169/2/3
f 175/1/3 170/1/3 161/1/3
f 175/1/3 171/1/3 170/1/3
f 176/2/3 173/2/3 172/2/3
f 176/1/3 171/1/3 175/1/3
f 176/2/3 174/2/3 173/2/3
f 176/2/3 172/2/3 171/2/3
f 177/2/3 166/2/3 174/2/3
f 177/2/3 174/2/3 176/2/3
f 182/1/3 179/1/3 178/1/3
f 183/2/3 180/2/3 179/2/3
f 183/1/3 179/1/3 182/1/3
f 184/2/3 180/2/3 183/2/3
f 185/2/3 180/2/3 184/2/3
f 186/2/3 180/2/3 185/2/3
f 188/1/3 182/1/3 181/1/3
f 189/1/3 182/1/3 188/1/3
f 191/2/3 187/2/3 186/2/3
f 192/2/3 187/2/3 191/2/3
f 193/1/3 190/1/3 189/1/3
f 194/2/3 191/2/3 190/2/3
f 194/1/3 190/1/3 193/1/3
f 195/2/3 191/2/3 194/2/3
f 196/1/4 197/1/4 200/1/4
f 197/2/4 198/2/4 201/2/4
f 200/1/4 197/1/4 201/1/4
f 201/2/4 198/2/4 202/2/4
f 199/1/4 200/1/4 204/1/4
f 204/1/4 200/1/4 205/1/4
f 202/2/4 203/2/4 207/2/4
f 207/2/4 203/2/4 208/2/4
f 205/1/4 206/1/4 209/1/4
f 206/2/4 207/2/4 210/2/4
f 209/1/4 206/1/4 210/1/4
f 210/2/4 207/2/4 211/2/4
f 212/1/4 213/1/4 215/1/4
f 213/2/4 214/2/4 216/2/4
f 215/1/4 213/1/4 216/1/4
f 216/2/4 214/2/4 217/2/4
f 217/2/4 214/2/4 218/2/4
f 218/2/4 214/2/4 219/2/4
f 212/1/4 215/1/4 220/1/4
f 219/2/4 214/2/4 222/2/4
f 221/2/4 222/2/4 223/2/4
f 223/2/4 222/2/4 224/2/4
f 220/1/4 221/1/4 225/1/4
f 212/1/4 220/1/4 225/1/4
f 221/2/4 223/2/4 226/2/4
f 225/1/4 221/1/4 226/1/4
f 223/1/4 224/1/4 227/1/4
f 226/2/4 223/2/4 227/2/4
f 224/2/4 222/2/4 228/2/4
f 227/1/4 224/1/4 228/1/4
f 222/2/4 214/2/4 229/2/4
f 228/2/4 222/2/4 229/2/4
f 230/1/4 231/1/4 233/1/4
f 231/2/4 232/2/4 234/2/4
f 233/1/4 231/1/4 234/1/4
f 234/2/4 232/2/4 235/2/4
f 238/1/5 237/1/5 236/1/5
f 239/1/5 237/1/5 238/1/5
f 243/1/5 241/1/5 240/1/5
f 244/1/5 241/1/5 243/1/5
f 246/1/5 243/1/5 242/1/5
f 247/1/5 243/1/5 246/1/5
f 248/1/5 245/1/5 244/1/5
f 249/1/5 245/1/5 248/1/5
f 250/1/5 248/1/5 247/1/5
f 251/1/5 248/1/5 250/1/5
f 254/1/5 253/1/5 252/1/5
f 255/1/5 253/1/5 254/1/5
f 258/1/5 257/1/5 256/1/5
f 259/1/5 257/1/5 258/1/5
f 260/2/6 261/2/6 262/2/6
f 262/2/6 261/2/6 263/2/6
f 264/2/6 265/2/6 266/2/6
f 266/2/6 265/2/6 267/2/6
f 268/1/6 269/1/6 271/1/6
f 269/2/6 270/2/6 272/2/6
f 271/1/6 269/1/6 272/1/6
f 271/2/6 272/2/6 274/2/6
f 272/2/6 270/2/6 275/2/6
f 274/2/6 272/2/6 275/2/6
f 275/2/6 276/2/6 277/2/6
f 277/2/6 276/2/6 278/2/6
f 275/2/6 277/2/6 279/2/6
f 277/1/6 278/1/6 279/1/6
f 279/1/6 278/1/6 280/1/6
f 273/2/6 274/2/6 281/2/6
f 281/2/6 274/2/6 282/2/6
f 275/2/6 279/2/6 283/2/6
f 279/2/6 280/2/6 283/2/6
f 283/2/6 280/2/6 284/2/6
f 282/2/6 283/2/6 285/2/6
f 285/2/6 283/2/6 286/2/6
f 282/2/6 285/2/6 287/2/6
f 285/1/6 286/1/6 287/1/6
f 286/2/6 283/2/6 288/2/6
f 287/1/6 286/1/6 288/1/6
f 282/2/6 287/2/6 289/2/6
f 287/2/6 288/2/6 289/2/6
f 288/2/6 283/2/6 290/2/6
f 289/2/6 288/2/6 290/2/6
f 291/2/6 292/2/6 293/2/6
f 293/2/6 292/2/6 294/2/6
f 294/2/6 292/2/6 295/2/6
f 295/2/6 292/2/6 296/2/6
f 291/2/6 293/2/6 297/2/6
f 293/1/6 294/1/6 297/1/6
f 294/2/6 295/2/6 298/2/6
f 297/1/6 294/1/6 298/1/6
f 295/1/6 296/1/6 299/1/6
f 298/2/6 295/2/6 299/2/6
f 296/2/6 292/2/6 300/2/6
f 299/1/6 296/1/6 300/1/6
f 298/2/6 299/2/6 301/2/6
f 297/2/6 298/2/6 301/2/6
f 299/2/6 300/2/6 301/2/6
f 301/2/6 300/2/6 302/2/6
f 297/2/6 301/2/6 303/2/6
f 301/1/6 302/1/6 303/1/6
f 302/2/6 300/2/6 304/2/6
f 303/1/6 302/1/6 304/1/6
f 304/2/6 300/2/6 305/2/6
f 305/2/6 300/2/6 306/2/6
f 303/2/6 304/2/6 307/2/6
f 304/2/6 305/2/6 307/2/6
f 305/1/6 306/1/6 307/1/6
f 306/2/6 300/2/6 308/2/6
f 307/1/6 306/1/6 308/1/6
f 291/2/6 297/2/6 309/2/6
f 297/2/6 303/2/6 309/2/6
f 307/2/6 308/2/6 309/2/6
f 303/2/6 307/2/6 309/2/6
f 309/2/6 308/2/6 310/2/6
f 310/2/6 308/2/6 311/2/6
f 311/2/6 308/2/6 312/2/6
f 291/2/6 309/2/6 313/2/6
f 309/1/6 310/1/6 313/1/6
f 310/2/6 311/2/6 314/2/6
f 313/1/6 310/1/6 314/1/6
f 311/1/6 312/1/6 315/1/6
f 314/2/6 311/2/6 315/2/6
f 312/2/6 308/2/6 316/2/6
f 315/1/6 312/1/6 316/1/6
f 314/2/6 315/2/6 317/2/6
f 316/2/6 308/2/6 317/2/6
f 315/2/6 316/2/6 317/2/6
f 313/2/6 314/2/6 317/2/6
f 317/2/6 308/2/6 318/2/6
f 313/2/6 317/2/6 319/2/6
f 317/1/6 318/1/6 319/1/6
f 318/2/6 308/2/6 320/2/6
f 319/1/6 318/1/6 320/1/6
f 320/2/6 308/2/6 321/2/6
f 319/2/6 320/2/6 322/2/6
f 320/1/6 321/1/6 322/1/6
f 321/2/6 308/2/6 323/2/6
f 322/1/6 321/1/6 323/1/6
f 291/2/6 313/2/6 324/2/6
f 313/2/6 319/2/6 324/2/6
f 322/2/6 323/2/6 324/2/6
f 319/2/6 322/2/6 324/2/6
f 300/2/6 292/2/6 325/2/6
f 324/2/6 323/2/6 325/2/6
f 308/2/6 300/2/6 325/2/6
f 323/2/6 308/2/6 325/2/6
