# MagicaVoxel @ Ephtracy

# group
o 

# material
mtllib snake22_ str.mtl
usemtl palette

# normals
vn -1 0 0
vn 1 0 0
vn 0 0 1
vn 0 0 -1
vn 0 -1 0
vn 0 1 0

# texcoords
vt 0.521484 0.5
vt 0.744141 0.5
vt 0.845703 0.5

# verts
v -1.1 0.3 0.2
v -1.1 0.3 -0.2
v -1.1 0.4 0.3
v -1.1 0.4 0.2
v -1.1 0.4 -0.2
v -1.1 0.4 -0.3
v -1.1 0.5 0.5
v -1.1 0.5 0.3
v -1.1 0.5 -0.3
v -1.1 0.5 -0.5
v -1.1 0.6 0.6
v -1.1 0.6 0.5
v -1.1 0.6 -0.5
v -1.1 0.6 -0.6
v -1.1 0.8 0.7
v -1.1 0.8 0.6
v -1.1 0.8 -0.6
v -1.1 0.8 -0.7
v -1.1 0.9 0.8
v -1.1 0.9 0.7
v -1.1 0.9 -0.7
v -1.1 0.9 -0.8
v -1.1 1 -0.5
v -1.1 1 -0.8
v -1.1 1.3 0.8
v -1.1 1.3 0.7
v -1.1 1.3 -0.7
v -1.1 1.3 -0.8
v -1.1 1.4 0.7
v -1.1 1.4 0.6
v -1.1 1.4 -0.6
v -1.1 1.4 -0.7
v -1.1 1.6 0.6
v -1.1 1.6 0.5
v -1.1 1.6 -0.5
v -1.1 1.6 -0.6
v -1.1 1.7 0.5
v -1.1 1.7 0.3
v -1.1 1.7 -0.3
v -1.1 1.7 -0.5
v -1.1 1.8 0.3
v -1.1 1.8 0.2
v -1.1 1.8 -0.2
v -1.1 1.8 -0.3
v -1.1 1.9 0.2
v -1.1 1.9 -0.2
v 1.1 0.3 0.2
v 1.1 0.3 -0.2
v 1.1 0.4 0.3
v 1.1 0.4 0.2
v 1.1 0.4 -0.2
v 1.1 0.4 -0.3
v 1.1 0.5 0.5
v 1.1 0.5 0.3
v 1.1 0.5 -0.3
v 1.1 0.5 -0.5
v 1.1 0.6 0.6
v 1.1 0.6 0.5
v 1.1 0.6 -0.5
v 1.1 0.6 -0.6
v 1.1 0.8 0.7
v 1.1 0.8 0.6
v 1.1 0.8 -0.6
v 1.1 0.8 -0.7
v 1.1 0.9 0.8
v 1.1 0.9 0.7
v 1.1 0.9 -0.7
v 1.1 0.9 -0.8
v 1.1 1 -0.5
v 1.1 1 -0.8
v 1.1 1.3 0.8
v 1.1 1.3 0.7
v 1.1 1.3 -0.7
v 1.1 1.3 -0.8
v 1.1 1.4 0.7
v 1.1 1.4 0.6
v 1.1 1.4 -0.6
v 1.1 1.4 -0.7
v 1.1 1.6 0.6
v 1.1 1.6 0.5
v 1.1 1.6 -0.5
v 1.1 1.6 -0.6
v 1.1 1.7 0.5
v 1.1 1.7 0.3
v 1.1 1.7 -0.3
v 1.1 1.7 -0.5
v 1.1 1.8 0.3
v 1.1 1.8 0.2
v 1.1 1.8 -0.2
v 1.1 1.8 -0.3
v 1.1 1.9 0.2
v 1.1 1.9 -0.2
v -1.1 0.9 0.8
v -1.1 1.3 0.8
v -0.5 1.1 0.8
v -0.5 1.3 0.8
v -0.4 1.1 0.8
v -0.4 1.2 0.8
v -0.3 0.9 0.8
v -0.3 1.2 0.8
v -0.2 0.9 0.8
v -0.2 1.2 0.8
v -0.1 1.1 0.8
v -0.1 1.2 0.8
v 0 1.1 0.8
v 0 1.3 0.8
v 0.3 0.9 0.8
v 0.3 1.3 0.8
v 0.6 0.9 0.8
v 0.6 1.3 0.8
v 1.1 0.9 0.8
v 1.1 1.3 0.8
v -1.1 0.8 0.7
v -1.1 0.9 0.7
v -1.1 1.3 0.7
v -1.1 1.4 0.7
v -0.5 1.3 0.7
v -0.3 0.9 0.7
v -0.2 0.9 0.7
v 0 1.3 0.7
v 0.3 0.9 0.7
v 0.3 1.3 0.7
v 0.6 0.9 0.7
v 0.6 1.3 0.7
v 1.1 0.8 0.7
v 1.1 0.9 0.7
v 1.1 1.3 0.7
v 1.1 1.4 0.7
v -1.1 0.6 0.6
v -1.1 0.8 0.6
v -1.1 1.4 0.6
v -1.1 1.6 0.6
v -0.4 0.6 0.6
v -0.4 0.8 0.6
v -0.3 0.6 0.6
v -0.3 0.8 0.6
v -0.3 1.4 0.6
v -0.3 1.6 0.6
v -0.1 1.4 0.6
v -0.1 1.6 0.6
v 1.1 0.6 0.6
v 1.1 0.8 0.6
v 1.1 1.4 0.6
v 1.1 1.6 0.6
v -1.1 0.5 0.5
v -1.1 0.6 0.5
v -1.1 1.6 0.5
v -1.1 1.7 0.5
v -0.4 0.5 0.5
v -0.4 0.6 0.5
v -0.3 0.5 0.5
v -0.3 0.6 0.5
v -0.3 1.6 0.5
v -0.1 1.6 0.5
v 0.5 1.6 0.5
v 0.5 1.7 0.5
v 0.7 1.6 0.5
v 0.7 1.7 0.5
v 1.1 0.5 0.5
v 1.1 0.6 0.5
v 1.1 1.6 0.5
v 1.1 1.7 0.5
v -1.1 0.4 0.3
v -1.1 0.5 0.3
v -1.1 1.7 0.3
v -1.1 1.8 0.3
v 1.1 0.4 0.3
v 1.1 0.5 0.3
v 1.1 1.7 0.3
v 1.1 1.8 0.3
v -1.1 0.3 0.2
v -1.1 0.4 0.2
v -1.1 1.8 0.2
v -1.1 1.9 0.2
v -0.4 1.8 0.2
v -0.4 1.9 0.2
v -0.2 1.8 0.2
v -0.2 1.9 0.2
v 1.1 0.3 0.2
v 1.1 0.4 0.2
v 1.1 1.8 0.2
v 1.1 1.9 0.2
v -1.1 0.3 -0.2
v -1.1 0.4 -0.2
v -1.1 1.8 -0.2
v -1.1 1.9 -0.2
v 0.1 0.3 -0.2
v 0.1 0.4 -0.2
v 0.3 0.3 -0.2
v 0.3 0.4 -0.2
v 0.3 1.8 -0.2
v 0.3 1.9 -0.2
v 0.7 1.8 -0.2
v 0.7 1.9 -0.2
v 1.1 0.3 -0.2
v 1.1 0.4 -0.2
v 1.1 1.8 -0.2
v 1.1 1.9 -0.2
v -1.1 0.4 -0.3
v -1.1 0.5 -0.3
v -1.1 1.7 -0.3
v -1.1 1.8 -0.3
v 1.1 0.4 -0.3
v 1.1 0.5 -0.3
v 1.1 1.7 -0.3
v 1.1 1.8 -0.3
v -1.1 0.5 -0.5
v -1.1 0.6 -0.5
v -1.1 1.6 -0.5
v -1.1 1.7 -0.5
v -1 0.6 -0.5
v -0.9 0.6 -0.5
v -0.8 0.6 -0.5
v -0.7 0.6 -0.5
v -0.6 0.6 -0.5
v -0.5 0.6 -0.5
v -0.4 0.6 -0.5
v 0 1.6 -0.5
v 0 1.7 -0.5
v 0.3 1.6 -0.5
v 0.3 1.7 -0.5
v 0.5 0.6 -0.5
v 1.1 0.5 -0.5
v 1.1 0.6 -0.5
v 1.1 1.6 -0.5
v 1.1 1.7 -0.5
v -1.1 0.6 -0.6
v -1.1 0.8 -0.6
v -1.1 1.4 -0.6
v -1.1 1.6 -0.6
v -1 0.6 -0.6
v -1 0.7 -0.6
v -0.9 0.6 -0.6
v -0.9 0.7 -0.6
v -0.8 0.6 -0.6
v -0.8 0.7 -0.6
v -0.7 0.6 -0.6
v -0.7 0.7 -0.6
v -0.6 0.6 -0.6
v -0.6 0.7 -0.6
v -0.5 0.6 -0.6
v -0.5 0.7 -0.6
v -0.5 0.8 -0.6
v -0.4 0.6 -0.6
v -0.4 0.7 -0.6
v 0 1.4 -0.6
v 0 1.6 -0.6
v 0.3 1.4 -0.6
v 0.3 1.6 -0.6
v 0.5 0.6 -0.6
v 0.5 0.8 -0.6
v 1.1 0.6 -0.6
v 1.1 0.8 -0.6
v 1.1 1.4 -0.6
v 1.1 1.6 -0.6
v -1.1 0.8 -0.7
v -1.1 0.9 -0.7
v -1.1 1.3 -0.7
v -1.1 1.4 -0.7
v -1 0.9 -0.7
v -0.9 0.9 -0.7
v -0.8 0.9 -0.7
v -0.7 0.9 -0.7
v -0.6 0.9 -0.7
v -0.5 0.8 -0.7
v -0.5 0.9 -0.7
v 0 1.3 -0.7
v 0 1.4 -0.7
v 0.3 1.3 -0.7
v 0.3 1.4 -0.7
v 0.5 0.8 -0.7
v 0.5 0.9 -0.7
v 1.1 0.8 -0.7
v 1.1 0.9 -0.7
v 1.1 1.3 -0.7
v 1.1 1.4 -0.7
v -1.1 0.9 -0.8
v -1.1 1 -0.8
v -1.1 1.3 -0.8
v -1 0.9 -0.8
v -1 1 -0.8
v -0.9 0.9 -0.8
v -0.9 1 -0.8
v -0.8 0.9 -0.8
v -0.8 1 -0.8
v -0.7 0.9 -0.8
v -0.7 1 -0.8
v -0.6 0.9 -0.8
v -0.6 1 -0.8
v 0.5 0.9 -0.8
v 0.5 1 -0.8
v 1.1 0.9 -0.8
v 1.1 1 -0.8
v 1.1 1.3 -0.8
v -1.1 0.3 0.2
v 1.1 0.3 0.2
v 0.1 0.3 0.1
v 0.3 0.3 0.1
v -1.1 0.3 -0.2
v 0.1 0.3 -0.2
v 0.3 0.3 -0.2
v 1.1 0.3 -0.2
v -1.1 0.4 0.3
v 1.1 0.4 0.3
v -1.1 0.4 0.2
v 1.1 0.4 0.2
v -1.1 0.4 -0.2
v 0.1 0.4 -0.2
v 0.3 0.4 -0.2
v 1.1 0.4 -0.2
v -1.1 0.4 -0.3
v 1.1 0.4 -0.3
v -1.1 0.5 0.5
v -0.4 0.5 0.5
v -0.3 0.5 0.5
v 1.1 0.5 0.5
v -0.4 0.5 0.4
v -0.3 0.5 0.4
v -1.1 0.5 0.3
v 1.1 0.5 0.3
v -1.1 0.5 -0.3
v 1.1 0.5 -0.3
v -1.1 0.5 -0.5
v 1.1 0.5 -0.5
v -1.1 0.6 0.6
v -0.4 0.6 0.6
v -0.3 0.6 0.6
v 1.1 0.6 0.6
v -1.1 0.6 0.5
v -0.4 0.6 0.5
v -0.3 0.6 0.5
v 1.1 0.6 0.5
v -1.1 0.6 -0.5
v -1 0.6 -0.5
v -0.9 0.6 -0.5
v -0.8 0.6 -0.5
v -0.7 0.6 -0.5
v -0.6 0.6 -0.5
v -0.5 0.6 -0.5
v -0.4 0.6 -0.5
v 0.5 0.6 -0.5
v 1.1 0.6 -0.5
v -1.1 0.6 -0.6
v -1 0.6 -0.6
v -0.9 0.6 -0.6
v -0.8 0.6 -0.6
v -0.7 0.6 -0.6
v -0.6 0.6 -0.6
v -0.5 0.6 -0.6
v -0.4 0.6 -0.6
v 0.5 0.6 -0.6
v 1.1 0.6 -0.6
v -1.1 0.8 0.7
v 1.1 0.8 0.7
v -1.1 0.8 0.6
v -0.4 0.8 0.6
v -0.3 0.8 0.6
v 1.1 0.8 0.6
v -1.1 0.8 -0.6
v -0.5 0.8 -0.6
v 0.5 0.8 -0.6
v 1.1 0.8 -0.6
v -1.1 0.8 -0.7
v -0.5 0.8 -0.7
v 0.5 0.8 -0.7
v 1.1 0.8 -0.7
v -1.1 0.9 0.8
v -0.3 0.9 0.8
v -0.2 0.9 0.8
v 0.3 0.9 0.8
v 0.6 0.9 0.8
v 1.1 0.9 0.8
v -1.1 0.9 0.7
v -0.3 0.9 0.7
v -0.2 0.9 0.7
v 0.3 0.9 0.7
v 0.6 0.9 0.7
v 1.1 0.9 0.7
v -1.1 0.9 -0.7
v -1 0.9 -0.7
v -0.9 0.9 -0.7
v -0.8 0.9 -0.7
v -0.7 0.9 -0.7
v -0.6 0.9 -0.7
v -0.5 0.9 -0.7
v 0.5 0.9 -0.7
v 1.1 0.9 -0.7
v -1.1 0.9 -0.8
v -1 0.9 -0.8
v -0.9 0.9 -0.8
v -0.8 0.9 -0.8
v -0.7 0.9 -0.8
v -0.6 0.9 -0.8
v 0.5 0.9 -0.8
v 1.1 0.9 -0.8
v -1.1 1.3 0.8
v -0.5 1.3 0.8
v 0 1.3 0.8
v 0.3 1.3 0.8
v 0.6 1.3 0.8
v 1.1 1.3 0.8
v -1.1 1.3 0.7
v -0.5 1.3 0.7
v 0 1.3 0.7
v 0.3 1.3 0.7
v 0.6 1.3 0.7
v 1.1 1.3 0.7
v -1.1 1.3 -0.7
v 0 1.3 -0.7
v 0.3 1.3 -0.7
v 1.1 1.3 -0.7
v -1.1 1.3 -0.8
v 1.1 1.3 -0.8
v -1.1 1.4 0.7
v 1.1 1.4 0.7
v -1.1 1.4 0.6
v -0.3 1.4 0.6
v -0.1 1.4 0.6
v 1.1 1.4 0.6
v -1.1 1.4 -0.6
v 0 1.4 -0.6
v 0.3 1.4 -0.6
v 1.1 1.4 -0.6
v -1.1 1.4 -0.7
v 0 1.4 -0.7
v 0.3 1.4 -0.7
v 1.1 1.4 -0.7
v -1.1 1.6 0.6
v -0.3 1.6 0.6
v -0.1 1.6 0.6
v 1.1 1.6 0.6
v -1.1 1.6 0.5
v -0.3 1.6 0.5
v -0.1 1.6 0.5
v 0.5 1.6 0.5
v 0.7 1.6 0.5
v 1.1 1.6 0.5
v -1.1 1.6 -0.5
v 0 1.6 -0.5
v 0.3 1.6 -0.5
v 1.1 1.6 -0.5
v -1.1 1.6 -0.6
v 0 1.6 -0.6
v 0.3 1.6 -0.6
v 1.1 1.6 -0.6
v -1.1 1.7 0.5
v 0.5 1.7 0.5
v 0.7 1.7 0.5
v 1.1 1.7 0.5
v 0.5 1.7 0.4
v 0.7 1.7 0.4
v -1.1 1.7 0.3
v 1.1 1.7 0.3
v -1.1 1.7 -0.3
v 1.1 1.7 -0.3
v 0 1.7 -0.4
v 0.3 1.7 -0.4
v -1.1 1.7 -0.5
v 0 1.7 -0.5
v 0.3 1.7 -0.5
v 1.1 1.7 -0.5
v -1.1 1.8 0.3
v 1.1 1.8 0.3
v -1.1 1.8 0.2
v -0.4 1.8 0.2
v -0.2 1.8 0.2
v 1.1 1.8 0.2
v -1.1 1.8 -0.2
v 0.3 1.8 -0.2
v 0.7 1.8 -0.2
v 1.1 1.8 -0.2
v -1.1 1.8 -0.3
v 1.1 1.8 -0.3
v -1.1 1.9 0.2
v -0.4 1.9 0.2
v -0.2 1.9 0.2
v 1.1 1.9 0.2
v -0.4 1.9 0.1
v -0.2 1.9 0.1
v 0.3 1.9 -0.1
v 0.7 1.9 -0.1
v -1.1 1.9 -0.2
v 0.3 1.9 -0.2
v 0.7 1.9 -0.2
v 1.1 1.9 -0.2

# faces
f 4/2/1 2/2/1 1/2/1
f 5/2/1 2/2/1 4/2/1
f 8/2/1 4/2/1 3/2/1
f 8/2/1 6/2/1 5/2/1
f 8/2/1 5/2/1 4/2/1
f 9/2/1 6/2/1 8/2/1
f 12/2/1 8/2/1 7/2/1
f 12/2/1 10/2/1 9/2/1
f 12/2/1 9/2/1 8/2/1
f 13/2/1 10/2/1 12/2/1
f 16/2/1 12/2/1 11/2/1
f 16/2/1 13/2/1 12/2/1
f 17/1/1 14/1/1 13/1/1
f 20/2/1 16/2/1 15/2/1
f 21/1/1 18/1/1 17/1/1
f 23/2/1 20/2/1 19/2/1
f 23/1/1 22/1/1 21/1/1
f 23/1/1 21/1/1 17/1/1
f 23/2/1 16/2/1 20/2/1
f 23/2/1 13/2/1 16/2/1
f 23/1/1 17/1/1 13/1/1
f 24/1/1 22/1/1 23/1/1
f 25/2/1 23/2/1 19/2/1
f 25/2/1 24/2/1 23/2/1
f 26/2/1 24/2/1 25/2/1
f 27/2/1 24/2/1 26/2/1
f 28/2/1 24/2/1 27/2/1
f 29/2/1 27/2/1 26/2/1
f 30/2/1 27/2/1 29/2/1
f 31/2/1 27/2/1 30/2/1
f 32/2/1 27/2/1 31/2/1
f 33/2/1 31/2/1 30/2/1
f 34/2/1 31/2/1 33/2/1
f 35/2/1 31/2/1 34/2/1
f 36/2/1 31/2/1 35/2/1
f 37/2/1 35/2/1 34/2/1
f 38/2/1 35/2/1 37/2/1
f 39/2/1 35/2/1 38/2/1
f 40/2/1 35/2/1 39/2/1
f 41/2/1 39/2/1 38/2/1
f 42/2/1 39/2/1 41/2/1
f 43/2/1 39/2/1 42/2/1
f 44/2/1 39/2/1 43/2/1
f 45/2/1 43/2/1 42/2/1
f 46/2/1 43/2/1 45/2/1
f 47/2/2 48/2/2 50/2/2
f 50/2/2 48/2/2 51/2/2
f 49/2/2 50/2/2 54/2/2
f 51/2/2 52/2/2 54/2/2
f 50/2/2 51/2/2 54/2/2
f 54/2/2 52/2/2 55/2/2
f 53/2/2 54/2/2 58/2/2
f 55/2/2 56/2/2 58/2/2
f 54/2/2 55/2/2 58/2/2
f 58/2/2 56/2/2 59/2/2
f 57/2/2 58/2/2 62/2/2
f 58/2/2 59/2/2 62/2/2
f 59/1/2 60/1/2 63/1/2
f 61/2/2 62/2/2 66/2/2
f 63/1/2 64/1/2 67/1/2
f 65/2/2 66/2/2 69/2/2
f 67/1/2 68/1/2 69/1/2
f 63/1/2 67/1/2 69/1/2
f 66/2/2 62/2/2 69/2/2
f 62/2/2 59/2/2 69/2/2
f 59/1/2 63/1/2 69/1/2
f 69/1/2 68/1/2 70/1/2
f 65/2/2 69/2/2 71/2/2
f 69/2/2 70/2/2 71/2/2
f 71/2/2 70/2/2 72/2/2
f 72/2/2 70/2/2 73/2/2
f 73/2/2 70/2/2 74/2/2
f 72/2/2 73/2/2 75/2/2
f 75/2/2 73/2/2 76/2/2
f 76/2/2 73/2/2 77/2/2
f 77/2/2 73/2/2 78/2/2
f 76/2/2 77/2/2 79/2/2
f 79/2/2 77/2/2 80/2/2
f 80/2/2 77/2/2 81/2/2
f 81/2/2 77/2/2 82/2/2
f 80/2/2 81/2/2 83/2/2
f 83/2/2 81/2/2 84/2/2
f 84/2/2 81/2/2 85/2/2
f 85/2/2 81/2/2 86/2/2
f 84/2/2 85/2/2 87/2/2
f 87/2/2 85/2/2 88/2/2
f 88/2/2 85/2/2 89/2/2
f 89/2/2 85/2/2 90/2/2
f 88/2/2 89/2/2 91/2/2
f 91/2/2 89/2/2 92/2/2
f 95/2/3 94/2/3 93/2/3
f 96/2/3 94/2/3 95/2/3
f 97/2/3 95/2/3 93/2/3
f 97/3/3 96/3/3 95/3/3
f 98/3/3 96/3/3 97/3/3
f 99/2/3 97/2/3 93/2/3
f 99/2/3 98/2/3 97/2/3
f 100/3/3 96/3/3 98/3/3
f 100/2/3 98/2/3 99/2/3
f 101/3/3 100/3/3 99/3/3
f 102/3/3 96/3/3 100/3/3
f 102/3/3 100/3/3 101/3/3
f 103/2/3 102/2/3 101/2/3
f 104/3/3 96/3/3 102/3/3
f 104/2/3 102/2/3 103/2/3
f 105/2/3 103/2/3 101/2/3
f 105/3/3 104/3/3 103/3/3
f 106/3/3 96/3/3 104/3/3
f 106/3/3 104/3/3 105/3/3
f 107/2/3 105/2/3 101/2/3
f 107/2/3 106/2/3 105/2/3
f 108/2/3 106/2/3 107/2/3
f 109/1/3 108/1/3 107/1/3
f 110/1/3 108/1/3 109/1/3
f 111/2/3 110/2/3 109/2/3
f 112/2/3 110/2/3 111/2/3
f 117/2/3 116/2/3 115/2/3
f 118/2/3 114/2/3 113/2/3
f 119/2/3 118/2/3 113/2/3
f 120/2/3 116/2/3 117/2/3
f 121/2/3 119/2/3 113/2/3
f 122/2/3 116/2/3 120/2/3
f 123/2/3 121/2/3 113/2/3
f 124/2/3 116/2/3 122/2/3
f 125/2/3 123/2/3 113/2/3
f 126/2/3 123/2/3 125/2/3
f 127/2/3 116/2/3 124/2/3
f 128/2/3 116/2/3 127/2/3
f 133/2/3 130/2/3 129/2/3
f 134/2/3 130/2/3 133/2/3
f 135/1/3 134/1/3 133/1/3
f 136/1/3 134/1/3 135/1/3
f 137/2/3 132/2/3 131/2/3
f 138/2/3 132/2/3 137/2/3
f 139/1/3 138/1/3 137/1/3
f 140/1/3 138/1/3 139/1/3
f 141/2/3 136/2/3 135/2/3
f 142/2/3 136/2/3 141/2/3
f 143/2/3 140/2/3 139/2/3
f 144/2/3 140/2/3 143/2/3
f 149/2/3 146/2/3 145/2/3
f 150/2/3 146/2/3 149/2/3
f 151/1/3 150/1/3 149/1/3
f 152/1/3 150/1/3 151/1/3
f 153/2/3 148/2/3 147/2/3
f 154/2/3 148/2/3 153/2/3
f 155/2/3 148/2/3 154/2/3
f 156/2/3 148/2/3 155/2/3
f 157/1/3 156/1/3 155/1/3
f 158/1/3 156/1/3 157/1/3
f 159/2/3 152/2/3 151/2/3
f 160/2/3 152/2/3 159/2/3
f 161/2/3 158/2/3 157/2/3
f 162/2/3 158/2/3 161/2/3
f 167/2/3 164/2/3 163/2/3
f 168/2/3 164/2/3 167/2/3
f 169/2/3 166/2/3 165/2/3
f 170/2/3 166/2/3 169/2/3
f 175/2/3 174/2/3 173/2/3
f 176/2/3 174/2/3 175/2/3
f 177/1/3 176/1/3 175/1/3
f 178/1/3 176/1/3 177/1/3
f 179/2/3 172/2/3 171/2/3
f 180/2/3 172/2/3 179/2/3
f 181/2/3 178/2/3 177/2/3
f 182/2/3 178/2/3 181/2/3
f 183/2/4 184/2/4 187/2/4
f 187/2/4 184/2/4 188/2/4
f 187/1/4 188/1/4 189/1/4
f 189/1/4 188/1/4 190/1/4
f 185/2/4 186/2/4 191/2/4
f 191/2/4 186/2/4 192/2/4
f 191/1/4 192/1/4 193/1/4
f 193/1/4 192/1/4 194/1/4
f 189/2/4 190/2/4 195/2/4
f 195/2/4 190/2/4 196/2/4
f 193/2/4 194/2/4 197/2/4
f 197/2/4 194/2/4 198/2/4
f 199/2/4 200/2/4 203/2/4
f 203/2/4 200/2/4 204/2/4
f 201/2/4 202/2/4 205/2/4
f 205/2/4 202/2/4 206/2/4
f 207/2/4 208/2/4 211/2/4
f 207/2/4 211/2/4 212/2/4
f 207/2/4 212/2/4 213/2/4
f 207/2/4 213/2/4 214/2/4
f 207/2/4 214/2/4 215/2/4
f 207/2/4 215/2/4 216/2/4
f 207/2/4 216/2/4 217/2/4
f 209/2/4 210/2/4 218/2/4
f 218/2/4 210/2/4 219/2/4
f 218/1/4 219/1/4 220/1/4
f 220/1/4 219/1/4 221/1/4
f 207/2/4 217/2/4 222/2/4
f 207/2/4 222/2/4 223/2/4
f 223/2/4 222/2/4 224/2/4
f 220/2/4 221/2/4 225/2/4
f 225/2/4 221/2/4 226/2/4
f 227/1/4 228/1/4 231/1/4
f 231/1/4 228/1/4 232/1/4
f 231/2/4 232/2/4 233/2/4
f 232/1/4 228/1/4 234/1/4
f 233/2/4 232/2/4 234/2/4
f 233/1/4 234/1/4 235/1/4
f 234/1/4 228/1/4 236/1/4
f 235/1/4 234/1/4 236/1/4
f 235/2/4 236/2/4 237/2/4
f 236/1/4 228/1/4 238/1/4
f 237/2/4 236/2/4 238/2/4
f 237/1/4 238/1/4 239/1/4
f 238/1/4 228/1/4 240/1/4
f 239/1/4 238/1/4 240/1/4
f 239/2/4 240/2/4 241/2/4
f 240/1/4 228/1/4 242/1/4
f 241/2/4 240/2/4 242/2/4
f 242/1/4 228/1/4 243/1/4
f 241/1/4 242/1/4 244/1/4
f 242/2/4 243/2/4 245/2/4
f 244/1/4 242/1/4 245/1/4
f 229/2/4 230/2/4 246/2/4
f 246/2/4 230/2/4 247/2/4
f 246/1/4 247/1/4 248/1/4
f 248/1/4 247/1/4 249/1/4
f 244/2/4 245/2/4 250/2/4
f 245/2/4 243/2/4 251/2/4
f 250/2/4 245/2/4 251/2/4
f 250/1/4 251/1/4 252/1/4
f 252/1/4 251/1/4 253/1/4
f 248/2/4 249/2/4 254/2/4
f 254/2/4 249/2/4 255/2/4
f 256/1/4 257/1/4 260/1/4
f 256/1/4 260/1/4 261/1/4
f 256/1/4 261/1/4 262/1/4
f 256/1/4 262/1/4 263/1/4
f 256/1/4 263/1/4 264/1/4
f 256/1/4 264/1/4 265/1/4
f 265/1/4 264/1/4 266/1/4
f 258/2/4 259/2/4 267/2/4
f 267/2/4 259/2/4 268/2/4
f 267/1/4 268/1/4 269/1/4
f 269/1/4 268/1/4 270/1/4
f 265/2/4 266/2/4 271/2/4
f 271/2/4 266/2/4 272/2/4
f 271/1/4 272/1/4 273/1/4
f 273/1/4 272/1/4 274/1/4
f 269/2/4 270/2/4 275/2/4
f 275/2/4 270/2/4 276/2/4
f 277/1/4 278/1/4 280/1/4
f 278/2/4 279/2/4 281/2/4
f 280/1/4 278/1/4 281/1/4
f 280/2/4 281/2/4 282/2/4
f 281/2/4 279/2/4 283/2/4
f 282/2/4 281/2/4 283/2/4
f 282/1/4 283/1/4 284/1/4
f 283/2/4 279/2/4 285/2/4
f 284/1/4 283/1/4 285/1/4
f 284/2/4 285/2/4 286/2/4
f 285/2/4 279/2/4 287/2/4
f 286/2/4 285/2/4 287/2/4
f 286/1/4 287/1/4 288/1/4
f 287/2/4 279/2/4 289/2/4
f 288/1/4 287/1/4 289/1/4
f 288/2/4 289/2/4 290/2/4
f 289/2/4 279/2/4 291/2/4
f 290/2/4 289/2/4 291/2/4
f 290/1/4 291/1/4 292/1/4
f 291/2/4 279/2/4 293/2/4
f 292/1/4 291/1/4 293/1/4
f 293/2/4 279/2/4 294/2/4
f 297/2/5 296/2/5 295/2/5
f 298/2/5 296/2/5 297/2/5
f 299/2/5 297/2/5 295/2/5
f 300/1/5 298/1/5 297/1/5
f 300/2/5 297/2/5 299/2/5
f 301/2/5 296/2/5 298/2/5
f 301/1/5 298/1/5 300/1/5
f 302/2/5 296/2/5 301/2/5
f 305/2/5 304/2/5 303/2/5
f 306/2/5 304/2/5 305/2/5
f 311/2/5 308/2/5 307/2/5
f 311/2/5 310/2/5 309/2/5
f 311/2/5 309/2/5 308/2/5
f 312/2/5 310/2/5 311/2/5
f 317/2/5 314/2/5 313/2/5
f 317/1/5 315/1/5 314/1/5
f 318/2/5 316/2/5 315/2/5
f 318/1/5 315/1/5 317/1/5
f 319/2/5 317/2/5 313/2/5
f 319/2/5 318/2/5 317/2/5
f 320/2/5 316/2/5 318/2/5
f 320/2/5 318/2/5 319/2/5
f 323/2/5 322/2/5 321/2/5
f 324/2/5 322/2/5 323/2/5
f 329/2/5 326/2/5 325/2/5
f 330/1/5 327/1/5 326/1/5
f 330/2/5 326/2/5 329/2/5
f 331/2/5 328/2/5 327/2/5
f 331/1/5 327/1/5 330/1/5
f 332/2/5 328/2/5 331/2/5
f 343/1/5 334/1/5 333/1/5
f 344/2/5 335/2/5 334/2/5
f 344/1/5 334/1/5 343/1/5
f 345/1/5 336/1/5 335/1/5
f 345/2/5 335/2/5 344/2/5
f 346/2/5 337/2/5 336/2/5
f 346/1/5 336/1/5 345/1/5
f 347/1/5 338/1/5 337/1/5
f 347/2/5 337/2/5 346/2/5
f 348/2/5 339/2/5 338/2/5
f 348/1/5 338/1/5 347/1/5
f 349/1/5 340/1/5 339/1/5
f 349/2/5 339/2/5 348/2/5
f 350/2/5 341/2/5 340/2/5
f 350/1/5 340/1/5 349/1/5
f 351/1/5 342/1/5 341/1/5
f 351/2/5 341/2/5 350/2/5
f 352/1/5 342/1/5 351/1/5
f 355/2/5 354/2/5 353/2/5
f 356/2/5 354/2/5 355/2/5
f 357/2/5 354/2/5 356/2/5
f 358/2/5 354/2/5 357/2/5
f 363/1/5 360/1/5 359/1/5
f 364/2/5 361/2/5 360/2/5
f 364/1/5 360/1/5 363/1/5
f 365/1/5 362/1/5 361/1/5
f 365/2/5 361/2/5 364/2/5
f 366/1/5 362/1/5 365/1/5
f 373/2/5 368/2/5 367/2/5
f 374/3/5 369/3/5 368/3/5
f 374/2/5 368/2/5 373/2/5
f 375/2/5 370/2/5 369/2/5
f 375/3/5 369/3/5 374/3/5
f 376/1/5 371/1/5 370/1/5
f 376/2/5 370/2/5 375/2/5
f 377/2/5 372/2/5 371/2/5
f 377/1/5 371/1/5 376/1/5
f 378/2/5 372/2/5 377/2/5
f 388/1/5 380/1/5 379/1/5
f 389/2/5 381/2/5 380/2/5
f 389/1/5 380/1/5 388/1/5
f 390/1/5 382/1/5 381/1/5
f 390/2/5 381/2/5 389/2/5
f 391/2/5 383/2/5 382/2/5
f 391/1/5 382/1/5 390/1/5
f 392/1/5 384/1/5 383/1/5
f 392/2/5 383/2/5 391/2/5
f 393/2/5 385/2/5 384/2/5
f 393/1/5 384/1/5 392/1/5
f 393/2/5 386/2/5 385/2/5
f 394/1/5 387/1/5 386/1/5
f 394/2/5 386/2/5 393/2/5
f 395/1/5 387/1/5 394/1/5
f 396/2/6 397/2/6 402/2/6
f 397/3/6 398/3/6 403/3/6
f 402/2/6 397/2/6 403/2/6
f 398/2/6 399/2/6 404/2/6
f 403/3/6 398/3/6 404/3/6
f 399/1/6 400/1/6 405/1/6
f 404/2/6 399/2/6 405/2/6
f 400/2/6 401/2/6 406/2/6
f 405/1/6 400/1/6 406/1/6
f 406/2/6 401/2/6 407/2/6
f 408/2/6 409/2/6 412/2/6
f 410/2/6 411/2/6 412/2/6
f 409/2/6 410/2/6 412/2/6
f 412/2/6 411/2/6 413/2/6
f 414/2/6 415/2/6 416/2/6
f 416/2/6 415/2/6 417/2/6
f 417/2/6 415/2/6 418/2/6
f 418/2/6 415/2/6 419/2/6
f 420/2/6 421/2/6 424/2/6
f 421/1/6 422/1/6 425/1/6
f 424/2/6 421/2/6 425/2/6
f 422/2/6 423/2/6 426/2/6
f 425/1/6 422/1/6 426/1/6
f 426/2/6 423/2/6 427/2/6
f 428/2/6 429/2/6 432/2/6
f 429/1/6 430/1/6 433/1/6
f 432/2/6 429/2/6 433/2/6
f 430/2/6 431/2/6 434/2/6
f 433/1/6 430/1/6 434/1/6
f 434/2/6 431/2/6 435/2/6
f 435/2/6 431/2/6 436/2/6
f 436/2/6 431/2/6 437/2/6
f 438/2/6 439/2/6 442/2/6
f 439/1/6 440/1/6 443/1/6
f 442/2/6 439/2/6 443/2/6
f 440/2/6 441/2/6 444/2/6
f 443/1/6 440/1/6 444/1/6
f 444/2/6 441/2/6 445/2/6
f 446/2/6 447/2/6 450/2/6
f 447/1/6 448/1/6 450/1/6
f 448/2/6 449/2/6 451/2/6
f 450/1/6 448/1/6 451/1/6
f 446/2/6 450/2/6 452/2/6
f 450/2/6 451/2/6 452/2/6
f 451/2/6 449/2/6 453/2/6
f 452/2/6 451/2/6 453/2/6
f 454/2/6 455/2/6 456/2/6
f 456/2/6 455/2/6 457/2/6
f 454/2/6 456/2/6 458/2/6
f 456/1/6 457/1/6 459/1/6
f 458/2/6 456/2/6 459/2/6
f 457/2/6 455/2/6 460/2/6
f 459/1/6 457/1/6 460/1/6
f 460/2/6 455/2/6 461/2/6
f 462/2/6 463/2/6 464/2/6
f 464/2/6 463/2/6 465/2/6
f 465/2/6 463/2/6 466/2/6
f 466/2/6 463/2/6 467/2/6
f 468/2/6 469/2/6 472/2/6
f 470/2/6 471/2/6 472/2/6
f 469/2/6 470/2/6 472/2/6
f 472/2/6 471/2/6 473/2/6
f 474/2/6 475/2/6 478/2/6
f 475/1/6 476/1/6 478/1/6
f 476/2/6 477/2/6 479/2/6
f 478/1/6 476/1/6 479/1/6
f 478/2/6 479/2/6 480/2/6
f 479/2/6 477/2/6 480/2/6
f 480/2/6 477/2/6 481/2/6
f 474/2/6 478/2/6 482/2/6
f 478/2/6 480/2/6 482/2/6
f 480/1/6 481/1/6 483/1/6
f 482/2/6 480/2/6 483/2/6
f 481/2/6 477/2/6 484/2/6
f 483/1/6 481/1/6 484/1/6
f 484/2/6 477/2/6 485/2/6
